<svg width="141" height="30" viewBox="0 0 141 30" fill="none" xmlns="http://www.w3.org/2000/svg">
    <path fill-rule="evenodd" clip-rule="evenodd" d="M7.24433 9.21V11.0714H0.286377V1.44434H2.63113V9.21H7.24433Z" fill="#87A2B1"/>
    <path fill-rule="evenodd" clip-rule="evenodd" d="M11.1946 9.62636C11.4143 9.62636 11.6254 9.62294 11.8252 9.61289C12.0262 9.60376 12.1869 9.58984 12.3067 9.57112V8.001C12.2163 7.98274 12.0815 7.96425 11.9013 7.94644C11.7215 7.92727 11.5546 7.91745 11.4054 7.91745C11.1946 7.91745 10.997 7.93001 10.8109 7.95329C10.6267 7.97543 10.4632 8.02018 10.3222 8.08455C10.182 8.1487 10.0726 8.2375 9.99306 8.34913C9.91281 8.46007 9.87183 8.59818 9.87183 8.76483C9.87183 9.08899 9.9901 9.31453 10.2254 9.43849C10.46 9.56473 10.7835 9.62636 11.1946 9.62636ZM11.0147 3.56885C11.676 3.56885 12.2268 3.6387 12.6671 3.77681C13.1083 3.91675 13.4617 4.11604 13.7266 4.37445C13.9931 4.63332 14.1805 4.94949 14.2903 5.31953C14.4007 5.69026 14.4555 6.10254 14.4555 6.55499V10.8633C14.135 10.9279 13.6889 11.0046 13.1187 11.0921C12.5473 11.1793 11.8562 11.2242 11.0441 11.2242C10.5335 11.2242 10.0702 11.1829 9.65393 11.0994C9.23812 11.0158 8.88009 10.8793 8.57934 10.6887C8.27958 10.5006 8.04871 10.252 7.88846 9.9461C7.7287 9.64021 7.64722 9.26514 7.64722 8.82113C7.64722 8.39448 7.7408 8.03311 7.92599 7.7368C8.11143 7.44049 8.35933 7.20491 8.67021 7.02844C8.98058 6.8529 9.3364 6.72506 9.73739 6.6463C10.1381 6.56755 10.554 6.5276 10.9838 6.5276C11.2745 6.5276 11.5325 6.54084 11.7589 6.56298C11.9839 6.58672 12.1659 6.6164 12.3068 6.65361V6.45888C12.3068 6.1071 12.1918 5.82495 11.9614 5.61082C11.7305 5.39875 11.3298 5.29237 10.7582 5.29237C10.3784 5.29237 10.0023 5.31748 9.63122 5.36884C9.26059 5.41906 8.94083 5.49097 8.67021 5.58251L8.38477 3.91675C8.51465 3.87931 8.67712 3.84005 8.87268 3.79873C9.06824 3.75558 9.28084 3.71997 9.51171 3.68801C9.74233 3.65468 9.98555 3.6266 10.2401 3.60355C10.4959 3.58026 10.7535 3.56885 11.0147 3.56885Z" fill="#87A2B1"/>
    <path fill-rule="evenodd" clip-rule="evenodd" d="M20.814 7.19513C20.814 6.5281 20.7214 6.05647 20.5362 5.77865C20.351 5.50152 20.0325 5.36204 19.5821 5.36204C19.4419 5.36204 19.296 5.36934 19.1463 5.38281C18.9962 5.39651 18.851 5.41249 18.711 5.43189V11.0716H16.4714V4.01427C16.6618 3.96884 16.884 3.91839 17.1396 3.86794C17.3952 3.81772 17.6658 3.77138 17.9517 3.72869C18.2379 3.68851 18.5293 3.65541 18.8305 3.63213C19.131 3.60884 19.4261 3.59766 19.7184 3.59766C20.2883 3.59766 20.7525 3.66409 21.1078 3.79946C21.4632 3.93254 21.7565 4.09371 21.9866 4.27885C22.3071 4.06609 22.6753 3.8983 23.0904 3.77754C23.5069 3.65792 23.8904 3.59766 24.241 3.59766C24.8719 3.59766 25.3904 3.6787 25.7956 3.84055C26.2011 4.00331 26.5253 4.23205 26.7653 4.52813C27.0053 4.82444 27.17 5.17759 27.2608 5.58302C27.3525 5.99278 27.3967 6.44637 27.3967 6.9454V11.0716H25.1576V7.19513C25.1576 6.5281 25.0647 6.05647 24.8793 5.77865C24.6941 5.50152 24.3756 5.36204 23.9252 5.36204C23.805 5.36204 23.6363 5.38943 23.422 5.44491C23.2069 5.50152 23.0281 5.56977 22.8881 5.65333C22.958 5.86722 23.0022 6.09185 23.0239 6.32698C23.0435 6.56348 23.0538 6.81528 23.0538 7.08442V11.0716H20.814V7.19513Z" fill="#4F667C"/>
    <path fill-rule="evenodd" clip-rule="evenodd" d="M33.708 6.68109C33.6979 6.50509 33.6653 6.33433 33.6102 6.16723C33.5546 5.9999 33.4707 5.85266 33.3546 5.72209C33.2391 5.59379 33.0936 5.48604 32.9193 5.40363C32.7428 5.32008 32.5252 5.27831 32.2652 5.27831C32.0148 5.27831 31.7998 5.31803 31.62 5.39633C31.438 5.47623 31.2884 5.57964 31.1689 5.70907C31.0479 5.83897 30.9553 5.98895 30.8904 6.15993C30.8257 6.33182 30.778 6.50509 30.7472 6.68109H33.708ZM28.4482 7.47408C28.4482 6.82508 28.5557 6.25803 28.772 5.77202C28.9868 5.28441 29.2695 4.88127 29.6199 4.55619C29.9707 4.23181 30.3737 3.98595 30.8298 3.81862C31.2858 3.6522 31.7535 3.56934 32.2345 3.56934C33.3573 3.56934 34.2439 3.88619 34.8946 4.52081C35.5464 5.15543 35.8719 6.09047 35.8719 7.32022C35.8719 7.44098 35.8679 7.57384 35.8566 7.71697C35.8467 7.85942 35.8366 7.98794 35.8274 8.09866H30.7471C30.7977 8.52486 31.0128 8.8634 31.394 9.11245C31.774 9.36333 32.2846 9.48843 32.9266 9.48843C33.3373 9.48843 33.74 9.4535 34.136 9.38342C34.5319 9.31494 34.8548 9.22865 35.1054 9.12638L35.4059 10.8074C35.2852 10.8638 35.1257 10.9179 34.9252 10.9745C34.7247 11.0298 34.502 11.0784 34.2563 11.12C34.0109 11.162 33.7486 11.1964 33.4674 11.2247C33.1866 11.2528 32.9066 11.2658 32.6259 11.2658C31.9143 11.2658 31.2957 11.1693 30.7705 10.9745C30.2451 10.7796 29.808 10.5143 29.4636 10.1753C29.1167 9.83793 28.8621 9.43707 28.6964 8.97457C28.5312 8.51116 28.4482 8.01122 28.4482 7.47408Z" fill="#4F667C"/>
    <path fill-rule="evenodd" clip-rule="evenodd" d="M36.9983 4.01427C37.3798 3.91109 37.8707 3.81772 38.4714 3.72869C39.0722 3.64194 39.704 3.59766 40.365 3.59766C41.0364 3.59766 41.595 3.6787 42.0409 3.84055C42.4866 4.00331 42.8402 4.23205 43.1002 4.52813C43.3604 4.82444 43.5466 5.17759 43.6555 5.58324C43.7671 5.99278 43.8217 6.44637 43.8217 6.94539V11.0718H41.5824V7.19513C41.5824 6.5281 41.4871 6.05647 41.2959 5.77865C41.1063 5.50152 40.7502 5.36204 40.23 5.36204C40.0697 5.36204 39.8991 5.36934 39.7189 5.38281C39.5391 5.39651 39.3776 5.41249 39.2381 5.43189V11.0718H36.9983V4.01427Z" fill="#4F667C"/>
    <path fill-rule="evenodd" clip-rule="evenodd" d="M45.1736 1.94413L47.4127 1.61084V3.76421H50.1023V5.48614H47.4127V8.05795C47.4127 8.49283 47.4951 8.84004 47.6613 9.09868C47.8265 9.35892 48.1598 9.48859 48.6603 9.48859C48.9016 9.48859 49.1485 9.46736 49.4041 9.42535C49.6596 9.38358 49.893 9.32628 50.1023 9.25072L50.4189 10.864C50.1475 10.9658 49.8483 11.0537 49.5164 11.1279C49.1865 11.2014 48.7801 11.2381 48.2998 11.2381C47.6887 11.2381 47.1818 11.1621 46.781 11.0089C46.3803 10.856 46.0605 10.6437 45.8203 10.3711C45.5805 10.0967 45.4128 9.76572 45.317 9.37764C45.2215 8.98774 45.1736 8.55743 45.1736 8.08512V1.94413Z" fill="#4F667C"/>
    <path fill-rule="evenodd" clip-rule="evenodd" d="M55.9024 6.68109C55.893 6.50509 55.8599 6.33433 55.8053 6.16723C55.7507 5.9999 55.6658 5.85266 55.5507 5.72209C55.4349 5.59379 55.2893 5.48604 55.1152 5.40363C54.9381 5.32008 54.7208 5.27831 54.4601 5.27831C54.2107 5.27831 53.9954 5.31803 53.8144 5.39633C53.6341 5.47623 53.4833 5.57964 53.3638 5.70907C53.2428 5.83897 53.1507 5.98895 53.0857 6.15993C53.0206 6.33182 52.9726 6.50509 52.9435 6.68109H55.9024ZM50.6436 7.47408C50.6436 6.82508 50.7515 6.25803 50.967 5.77202C51.1813 5.28441 51.4653 4.88127 51.8157 4.55619C52.1668 4.23181 52.5705 3.98595 53.0246 3.81862C53.4821 3.6522 53.9503 3.56934 54.4316 3.56934C55.5513 3.56934 56.439 3.88619 57.0901 4.52081C57.7425 5.15543 58.0674 6.09047 58.0674 7.32022C58.0674 7.44098 58.0623 7.57384 58.0516 7.71697C58.0423 7.85942 58.0324 7.98794 58.0228 8.09866H52.9436C52.9928 8.52486 53.2081 8.8634 53.5898 9.11245C53.9703 9.36333 54.4809 9.48843 55.1232 9.48843C55.5321 9.48843 55.937 9.4535 56.3321 9.38342C56.7269 9.31494 57.0509 9.22865 57.3003 9.12638L57.6015 10.8074C57.4818 10.8638 57.3215 10.9179 57.1208 10.9745C56.9205 11.0298 56.6978 11.0784 56.4519 11.12C56.2069 11.162 55.9437 11.1964 55.6624 11.2247C55.3829 11.2528 55.1012 11.2658 54.8212 11.2658C54.1098 11.2658 53.4913 11.1693 52.9661 10.9745C52.4396 10.7796 52.0046 10.5143 51.6577 10.1753C51.3132 9.83793 51.0576 9.43707 50.8915 8.97457C50.7268 8.51116 50.6436 8.01122 50.6436 7.47408Z" fill="#4F667C"/>
    <path fill-rule="evenodd" clip-rule="evenodd" d="M64.5545 6.68109C64.5451 6.50509 64.512 6.33433 64.4575 6.16723C64.4024 5.9999 64.3172 5.85266 64.2019 5.72209C64.0868 5.59379 63.9414 5.48604 63.7658 5.40363C63.5903 5.32008 63.3735 5.27831 63.113 5.27831C62.8624 5.27831 62.6461 5.31803 62.4666 5.39633C62.2858 5.47623 62.1354 5.57964 62.0159 5.70907C61.8962 5.83897 61.8023 5.98895 61.7364 6.15993C61.6722 6.33182 61.6248 6.50509 61.5949 6.68109H64.5545ZM59.2957 7.47408C59.2957 6.82508 59.4026 6.25803 59.6189 5.77202C59.8334 5.28441 60.1169 4.88127 60.4673 4.55619C60.8177 4.23181 61.2211 3.98595 61.6772 3.81862C62.1328 3.6522 62.6024 3.56934 63.0832 3.56934C64.2042 3.56934 65.0918 3.88619 65.7422 4.52081C66.3939 5.15543 66.7183 6.09047 66.7183 7.32022C66.7183 7.44098 66.7136 7.57384 66.705 7.71697C66.6946 7.85942 66.6837 7.98794 66.6744 8.09866H61.595C61.6448 8.52486 61.8589 8.8634 62.2412 9.11245C62.6217 9.36333 63.1328 9.48843 63.774 9.48843C64.1834 9.48843 64.5879 9.4535 64.9839 9.38342C65.379 9.31494 65.7022 9.22865 65.9529 9.12638L66.2536 10.8074C66.1334 10.8638 65.9724 10.9179 65.7714 10.9745C65.5719 11.0298 65.3479 11.0784 65.1032 11.12C64.858 11.162 64.5953 11.1964 64.3153 11.2247C64.0345 11.2528 63.7533 11.2658 63.4733 11.2658C62.7619 11.2658 62.1436 11.1693 61.6174 10.9745C61.0917 10.7796 60.6552 10.5143 60.3098 10.1753C59.9638 9.83793 59.7092 9.43707 59.5436 8.97457C59.3774 8.51116 59.2957 8.01122 59.2957 7.47408Z" fill="#87A2B1"/>
    <path fill-rule="evenodd" clip-rule="evenodd" d="M70.1155 9.58499C70.5259 9.58499 70.817 9.54801 70.9874 9.47336C71.157 9.39963 71.2419 9.25558 71.2419 9.04328C71.2419 8.87641 71.1323 8.73054 70.9116 8.60658C70.6913 8.48103 70.3555 8.33949 69.9049 8.18221C69.5535 8.06167 69.2365 7.93635 68.9505 7.80737C68.6651 7.67771 68.4226 7.52179 68.2211 7.34122C68.0211 7.16065 67.8668 6.94538 67.7557 6.69427C67.6453 6.44613 67.5907 6.14389 67.5907 5.79256C67.5907 5.10726 67.8668 4.5651 68.4174 4.16675C68.9686 3.76817 69.7251 3.56934 70.6869 3.56934C71.1676 3.56934 71.6281 3.6086 72.0686 3.68827C72.5099 3.76634 72.8603 3.85149 73.122 3.94531L72.7299 5.55584C72.4696 5.47228 72.1869 5.39924 71.881 5.33486C71.575 5.26957 71.2336 5.23738 70.8511 5.23738C70.1508 5.23738 69.8009 5.41658 69.8009 5.77841C69.8009 5.86196 69.815 5.9357 69.8434 5.99984C69.8748 6.06513 69.9355 6.12768 70.0249 6.18863C70.1155 6.24958 70.2372 6.31327 70.3933 6.38358C70.5483 6.45344 70.7466 6.53014 70.9874 6.6146C71.4782 6.78262 71.8832 6.94903 72.2042 7.11203C72.5252 7.27593 72.778 7.45194 72.9635 7.64118C73.1484 7.83111 73.2788 8.04067 73.3546 8.27124C73.4287 8.50294 73.4664 8.77117 73.4664 9.07501C73.4664 9.79661 73.1724 10.3424 72.5874 10.7125C72.001 11.0814 71.1718 11.2658 70.1002 11.2658C69.3994 11.2658 68.8155 11.2113 68.3503 11.0999C67.8831 10.988 67.5616 10.8958 67.3806 10.8218L67.7557 9.14099C68.1372 9.27887 68.5268 9.38844 68.9273 9.46697C69.3288 9.54573 69.7251 9.58499 70.1155 9.58499Z" fill="#87A2B1"/>
    <path fill-rule="evenodd" clip-rule="evenodd" d="M8.26968 21.1729C8.26968 19.9315 8.09684 19.0529 7.75189 18.5358C7.4062 18.0181 6.81557 17.7601 5.97629 17.7601C5.7148 17.7601 5.44566 17.7734 5.16565 17.7994C4.88614 17.8254 4.61527 17.8546 4.35427 17.8898V28.3866H0.1875V15.252C0.541583 15.1664 0.956408 15.0758 1.43247 14.9813C1.90656 14.8861 2.41052 14.7998 2.94214 14.7219C3.47351 14.6443 4.01895 14.585 4.57823 14.5409C5.13676 14.4987 5.68739 14.4761 6.22815 14.4761C7.2904 14.4761 8.15363 14.6014 8.81488 14.8518C9.47687 15.1011 10.0218 15.3986 10.4507 15.7437C11.0475 15.347 11.7327 15.0365 12.5063 14.8128C13.2802 14.5891 13.9928 14.4761 14.6461 14.4761C15.8212 14.4761 16.7857 14.6272 17.5403 14.9297C18.2954 15.231 18.8969 15.6574 19.345 16.2092C19.7922 16.7605 20.0991 17.4156 20.2665 18.1731C20.4352 18.9328 20.5186 19.7774 20.5186 20.7084V28.3866H16.3519V21.1729C16.3519 19.9315 16.1793 19.0529 15.8343 18.5358C15.4896 18.0181 14.898 17.7601 14.0592 17.7601C13.8357 17.7601 13.5224 17.8115 13.1214 17.9151C12.7209 18.0181 12.3898 18.148 12.1295 18.303C12.2594 18.7 12.3429 19.1173 12.3806 19.5569C12.4184 19.997 12.4365 20.4657 12.4365 20.9666V28.3866H8.26968V21.1729Z" fill="#4F667C"/>
    <path fill-rule="evenodd" clip-rule="evenodd" d="M28.798 25.6977C29.2074 25.6977 29.5985 25.6892 29.9716 25.6721C30.3452 25.655 30.6427 25.6287 30.8667 25.5938V22.6734C30.6983 22.6387 30.4474 22.6042 30.1116 22.5691C29.7765 22.5353 29.4686 22.5175 29.1888 22.5175C28.798 22.5175 28.4286 22.5391 28.0834 22.5821C27.7392 22.6252 27.436 22.7076 27.1752 22.8279C26.9135 22.9485 26.7095 23.1119 26.5594 23.3192C26.411 23.5262 26.3359 23.7847 26.3359 24.0944C26.3359 24.698 26.5552 25.116 26.9935 25.3486C27.4315 25.5815 28.0323 25.6977 28.798 25.6977ZM28.4619 14.4243C29.6923 14.4243 30.7163 14.5542 31.538 14.8129C32.3575 15.071 33.0153 15.4427 33.5097 15.9244C34.0025 16.4079 34.3529 16.9936 34.5581 17.6835C34.764 18.3722 34.8665 19.1397 34.8665 19.9836V27.9988C34.2692 28.1198 33.4398 28.2611 32.377 28.4248C31.3145 28.5896 30.0273 28.672 28.5179 28.672C27.5668 28.672 26.7043 28.5937 25.9309 28.4383C25.1564 28.2833 24.4912 28.0294 23.9316 27.6763C23.3716 27.3231 22.9422 26.8615 22.6447 26.2929C22.3462 25.7235 22.1968 25.0255 22.1968 24.1979C22.1968 23.4054 22.3691 22.7342 22.7146 22.1818C23.059 21.6296 23.521 21.1903 24.0993 20.8634C24.6768 20.5356 25.3383 20.2989 26.085 20.1523C26.83 20.0062 27.6038 19.9316 28.4056 19.9316C28.9461 19.9316 29.4268 19.9542 29.8456 19.9971C30.2651 20.0405 30.6049 20.0962 30.8666 20.1654V19.8038C30.8666 19.1481 30.6518 18.6229 30.2236 18.2257C29.7945 17.8289 29.0488 17.6312 27.9853 17.6312C27.2781 17.6312 26.5774 17.6785 25.8882 17.7737C25.1983 17.8682 24.6028 18.0022 24.0993 18.1734L23.5672 15.071C23.8094 15.0023 24.1124 14.93 24.4768 14.8519C24.8401 14.7736 25.2361 14.7051 25.665 14.6446C26.0939 14.585 26.5455 14.5327 27.0209 14.4896C27.4974 14.4465 27.9767 14.4243 28.4619 14.4243Z" fill="#4F667C"/>
    <path fill-rule="evenodd" clip-rule="evenodd" d="M46.3881 18.1995C46.0145 18.1136 45.5763 18.0232 45.073 17.9285C44.5691 17.8335 44.0291 17.7863 43.451 17.7863C43.1893 17.7863 42.8777 17.8077 42.5142 17.8506C42.1502 17.894 41.8749 17.9406 41.6895 17.9922V28.3865H37.5217V15.5112C38.2677 15.2695 39.1484 15.0414 40.1648 14.8266C41.1813 14.6104 42.314 14.5024 43.5631 14.5024C43.7866 14.5024 44.057 14.5152 44.3735 14.541C44.6903 14.5668 45.0076 14.6013 45.3247 14.6444C45.641 14.6876 45.9578 14.7403 46.276 14.7997C46.5928 14.8592 46.8625 14.9334 47.0864 15.0193L46.3881 18.1995Z" fill="#4F667C"/>
    <path fill-rule="evenodd" clip-rule="evenodd" d="M53.5467 25.6972C53.9571 25.6972 54.3482 25.6887 54.7216 25.6716C55.0942 25.6545 55.392 25.6282 55.6167 25.5933V22.6729C55.4492 22.6382 55.1971 22.6037 54.8613 22.5686C54.5263 22.5348 54.2191 22.517 53.9383 22.517C53.5467 22.517 53.1783 22.5387 52.8331 22.5816C52.4882 22.6247 52.1857 22.7071 51.925 22.8274C51.6637 22.948 51.4583 23.1114 51.3096 23.3187C51.1612 23.5257 51.0862 23.7842 51.0862 24.0939C51.0862 24.6975 51.3052 25.1155 51.7435 25.3481C52.1815 25.581 52.7828 25.6972 53.5467 25.6972ZM53.2109 14.4238C54.4423 14.4238 55.4665 14.5537 56.2882 14.8124C57.1073 15.0705 57.7656 15.4422 58.2592 15.9239C58.7525 16.4074 59.1036 16.9931 59.3083 17.683C59.5133 18.3717 59.6157 19.1392 59.6157 19.9832V27.9983C59.0184 28.1193 58.19 28.2606 57.126 28.4243C56.0643 28.5891 54.7776 28.6715 53.2669 28.6715C52.3173 28.6715 51.454 28.5932 50.6807 28.4378C49.9064 28.2828 49.2404 28.0289 48.6806 27.6758C48.1216 27.3226 47.6927 26.861 47.3947 26.2924C47.0959 25.7231 46.9468 25.025 46.9468 24.1975C46.9468 23.4049 47.1189 22.7337 47.4646 22.1813C47.8088 21.6291 48.271 21.1899 48.8483 20.863C49.4263 20.5351 50.0883 20.2984 50.8338 20.1519C51.5795 20.0058 52.3538 19.9311 53.1553 19.9311C53.6963 19.9311 54.1763 19.9537 54.5954 19.9966C55.0156 20.04 55.3546 20.0957 55.6166 20.1649V19.8033C55.6166 19.1477 55.402 18.6224 54.9731 18.2252C54.5447 17.8284 53.7988 17.6307 52.7361 17.6307C52.0274 17.6307 51.3276 17.678 50.6382 17.7732C49.9491 17.8677 49.3523 18.0017 48.8483 18.1729L48.3172 15.0705C48.5597 15.0018 48.8626 14.9295 49.2268 14.8514C49.5898 14.7731 49.9864 14.7046 50.4148 14.6441C50.8442 14.5845 51.2955 14.5323 51.7711 14.4891C52.2467 14.446 52.7269 14.4238 53.2109 14.4238Z" fill="#4F667C"/>
    <path fill-rule="evenodd" clip-rule="evenodd" d="M65.9296 28.3867C64.9748 26.6637 64.0066 24.6466 63.0239 22.3361C62.0411 20.0266 61.1102 17.5105 60.2312 14.7871H64.6498C64.8367 15.4599 65.0565 16.1876 65.3098 16.9713C65.562 17.7566 65.8247 18.549 66.0958 19.3498C66.3672 20.1524 66.6393 20.9324 66.9111 21.691C67.1825 22.4496 67.4499 23.1381 67.7124 23.759C67.9551 23.1381 68.2171 22.4496 68.4976 21.691C68.7783 20.9324 69.0536 20.1524 69.3255 19.3498C69.5969 18.549 69.8596 17.7566 70.1119 16.9713C70.3648 16.1876 70.5843 15.4599 70.7717 14.7871H75.0812C74.2022 17.5105 73.2723 20.0266 72.2905 22.3361C71.309 24.6466 70.3408 26.6637 69.3872 28.3867H65.9296Z" fill="#4F667C"/>
    <path fill-rule="evenodd" clip-rule="evenodd" d="M76.171 28.3867H80.339V14.7871H76.171V28.3867ZM80.7301 10.8566C80.7301 11.5642 80.4827 12.1203 79.9891 12.5244C79.4953 12.9294 78.913 13.1318 78.2414 13.1318C77.5703 13.1318 76.9873 12.9294 76.4937 12.5244C75.9999 12.1203 75.7524 11.5642 75.7524 10.8566C75.7524 10.15 75.9999 9.59325 76.4937 9.18897C76.9873 8.78468 77.5703 8.58105 78.2414 8.58105C78.913 8.58105 79.4953 8.78468 79.9891 9.18897C80.4827 9.59325 80.7301 10.15 80.7301 10.8566Z" fill="#4F667C"/>
    <path fill-rule="evenodd" clip-rule="evenodd" d="M89.0068 28.645C87.7956 28.6279 86.8117 28.5067 86.0573 28.2828C85.3025 28.059 84.7047 27.7445 84.2676 27.3384C83.8296 26.9345 83.5306 26.443 83.3723 25.8655C83.214 25.2879 83.1343 24.6371 83.1343 23.9132V8.9428L87.302 8.32324V23.1375C87.302 23.4822 87.3292 23.7927 87.3853 24.0682C87.4416 24.3447 87.5487 24.5773 87.7075 24.7668C87.8655 24.9572 88.0934 25.1108 88.3929 25.2325C88.6905 25.3523 89.0915 25.4299 89.5954 25.4649L89.0068 28.645Z" fill="#4F667C"/>
    <path fill-rule="evenodd" clip-rule="evenodd" d="M96.7255 28.645C95.5136 28.6279 94.5306 28.5067 93.7753 28.2828C93.0207 28.059 92.4227 27.7445 91.9864 27.3384C91.5476 26.9345 91.2493 26.443 91.091 25.8655C90.9328 25.2879 90.8538 24.6371 90.8538 23.9132V8.9428L95.02 8.32324V23.1375C95.02 23.4822 95.0472 23.7927 95.104 24.0682C95.1595 24.3447 95.2669 24.5773 95.4262 24.7668C95.5842 24.9572 95.8121 25.1108 96.1112 25.2325C96.4094 25.3523 96.8104 25.4299 97.3137 25.4649L96.7255 28.645Z" fill="#4F667C"/>
    <path fill-rule="evenodd" clip-rule="evenodd" d="M121.212 25.6197C121.976 25.6197 122.517 25.5514 122.833 25.4135C123.15 25.2752 123.309 25.0081 123.309 24.612C123.309 24.3011 123.104 24.0306 122.694 23.7971C122.283 23.5645 121.659 23.3015 120.82 23.0088C120.167 22.7851 119.576 22.5525 119.045 22.3105C118.513 22.0697 118.061 21.7807 117.687 21.4451C117.314 21.1079 117.026 20.7084 116.82 20.2423C116.616 19.7775 116.514 19.2171 116.514 18.5617C116.514 17.2867 117.026 16.278 118.052 15.5372C119.076 14.7957 120.485 14.4243 122.274 14.4243C123.169 14.4243 124.026 14.4987 124.847 14.6446C125.667 14.7907 126.32 14.951 126.805 15.1231L126.078 18.1218C125.592 17.9668 125.066 17.8289 124.498 17.7086C123.928 17.5878 123.289 17.5278 122.583 17.5278C121.276 17.5278 120.625 17.8638 120.625 18.5361C120.625 18.6904 120.653 18.8297 120.707 18.9502C120.764 19.071 120.876 19.1863 121.044 19.2981C121.212 19.4116 121.439 19.5319 121.729 19.662C122.018 19.793 122.386 19.9364 122.833 20.0925C123.747 20.4046 124.502 20.7146 125.098 21.0171C125.695 21.3214 126.166 21.6501 126.511 22.0023C126.855 22.3552 127.098 22.747 127.238 23.1766C127.377 23.6065 127.448 24.1046 127.448 24.6725C127.448 26.0148 126.903 27.0295 125.812 27.7167C124.721 28.4038 123.179 28.7494 121.183 28.7494C119.878 28.7494 118.793 28.6455 117.925 28.4382C117.059 28.2317 116.458 28.0595 116.122 27.9221L116.82 24.7928C117.529 25.0517 118.256 25.254 119.002 25.4003C119.747 25.5478 120.485 25.6197 121.212 25.6197Z" fill="#4F667C"/>
    <path fill-rule="evenodd" clip-rule="evenodd" d="M134.744 25.6977C135.154 25.6977 135.544 25.6892 135.919 25.6721C136.291 25.655 136.589 25.6287 136.814 25.5938V22.6734C136.645 22.6387 136.393 22.6042 136.058 22.5691C135.723 22.5353 135.414 22.5175 135.135 22.5175C134.744 22.5175 134.375 22.5391 134.03 22.5821C133.685 22.6252 133.382 22.7076 133.122 22.8279C132.86 22.9485 132.655 23.1119 132.506 23.3192C132.358 23.5262 132.282 23.7847 132.282 24.0944C132.282 24.698 132.502 25.116 132.94 25.3486C133.378 25.5815 133.979 25.6977 134.744 25.6977ZM134.408 14.4243C135.639 14.4243 136.663 14.5542 137.485 14.8129C138.304 15.071 138.962 15.4427 139.455 15.9244C139.949 16.4079 140.3 16.9936 140.505 17.6835C140.709 18.3722 140.812 19.1397 140.812 19.9836V27.9988C140.215 28.1198 139.386 28.2611 138.323 28.4248C137.261 28.5896 135.973 28.672 134.464 28.672C133.514 28.672 132.651 28.5937 131.877 28.4383C131.102 28.2833 130.437 28.0294 129.877 27.6763C129.318 27.3231 128.889 26.8615 128.591 26.2929C128.292 25.7235 128.144 25.0255 128.144 24.1979C128.144 23.4054 128.316 22.7342 128.661 22.1818C129.006 21.6296 129.468 21.1903 130.044 20.8634C130.623 20.5356 131.285 20.2989 132.03 20.1523C132.776 20.0062 133.551 19.9316 134.351 19.9316C134.893 19.9316 135.373 19.9542 135.793 19.9971C136.212 20.0405 136.551 20.0962 136.814 20.1654V19.8038C136.814 19.1481 136.598 18.6229 136.169 18.2257C135.741 17.8289 134.996 17.6312 133.933 17.6312C133.224 17.6312 132.524 17.6785 131.835 17.7737C131.146 17.8682 130.549 18.0022 130.044 18.1734L129.514 15.071C129.757 15.0023 130.059 14.93 130.424 14.8519C130.786 14.7736 131.182 14.7051 131.611 14.6446C132.041 14.585 132.492 14.5327 132.968 14.4896C133.443 14.4465 133.923 14.4243 134.408 14.4243Z" fill="#4F667C"/>
    <path fill-rule="evenodd" clip-rule="evenodd" d="M104.418 0.990723C104.192 0.990723 103.972 1.01789 103.764 1.06948C104.558 1.88376 105.339 3.21372 106.008 5.21666C106.599 4.78247 106.979 4.11247 106.979 3.35937C106.979 2.05246 105.831 0.990723 104.418 0.990723Z" fill="#992A76"/>
    <path fill-rule="evenodd" clip-rule="evenodd" d="M103.764 1.06934C102.666 1.3362 101.855 2.26051 101.855 3.35945C101.855 4.66681 103.004 5.72786 104.418 5.72786C105.018 5.72786 105.57 5.53725 106.008 5.21651C105.339 3.21358 104.558 1.88361 103.764 1.06934Z" fill="#D576AC"/>
    <path fill-rule="evenodd" clip-rule="evenodd" d="M118.048 5.54257C116.464 5.47911 115.122 6.61709 115.055 8.08379C115.017 8.91245 115.394 9.66921 116.016 10.1817C117.924 8.38786 119.486 7.55053 120.636 7.30924C120.257 6.31736 119.255 5.58914 118.048 5.54257Z" fill="#D22724"/>
    <path fill-rule="evenodd" clip-rule="evenodd" d="M120.636 7.30908C119.486 7.55038 117.925 8.38771 116.016 10.1815C116.494 10.576 117.115 10.8255 117.804 10.8525C119.391 10.9141 120.732 9.7768 120.799 8.30872C120.815 7.959 120.757 7.62137 120.636 7.30908Z" fill="#F29325"/>
    <path fill-rule="evenodd" clip-rule="evenodd" d="M109.871 5.15635C110.531 5.80649 110.494 6.39911 110.182 6.89242C110.236 6.91069 110.29 6.92461 110.343 6.94402C110.727 7.08783 111.098 7.26429 111.462 7.45559C113.468 6.27995 113.018 4.32016 112.9 3.92203C112.681 3.16939 112.21 2.49939 111.349 2.40351C110.38 2.29781 109.5 2.93769 109.386 3.83255C109.32 4.33933 109.519 4.81393 109.873 5.15452L109.871 5.15635Z" fill="#5567A8"/>
    <path fill-rule="evenodd" clip-rule="evenodd" d="M114.504 12.6266C114.084 11.6825 113.441 10.812 112.575 10.0174C111.723 9.23552 110.785 8.65363 109.763 8.27103C108.798 7.91263 107.815 7.73389 106.812 7.73389C106.749 7.73389 106.686 7.73457 106.624 7.73571C105.556 7.76014 104.49 7.99504 103.424 8.4395C103.403 8.44932 103.381 8.46005 103.36 8.46964L114.301 18.5135C114.311 18.4944 114.323 18.4763 114.333 18.4549C114.814 17.4744 115.068 16.4933 115.095 15.513C115.121 14.5323 114.924 13.571 114.504 12.6266Z" fill="#4F667C"/>
    <mask id="mask0_2_4539" style="mask-type:alpha" maskUnits="userSpaceOnUse" x="98" y="18" width="17" height="12">
    <path fill-rule="evenodd" clip-rule="evenodd" d="M98.2783 18.2407H114.891V30.0001H98.2783V18.2407Z" fill="white"/>
    </mask>
    <g mask="url(#mask0_2_4539)">
    <path fill-rule="evenodd" clip-rule="evenodd" d="M102.483 25.1652H110.949C110.949 25.1652 106.678 31.46 102.483 25.1652ZM114.301 18.2407H98.882C98.4815 19.4997 98.2783 20.4685 98.2783 21.6727C98.2783 22.9011 99.63 30.0002 106.601 30.0002C113.57 30.0002 114.891 22.8673 114.891 21.6389C114.891 20.434 114.691 19.4997 114.301 18.2407Z" fill="#4F667C"/>
    </g>
    <path fill-rule="evenodd" clip-rule="evenodd" d="M115.472 3.51386C115.365 2.7845 115.244 2.61626 114.899 2.41469C114.45 2.15148 113.853 2.27498 113.569 2.69114C113.283 3.10798 113.418 3.65905 113.868 3.92203C114.782 4.42698 113.805 5.60628 113.795 5.62112C114.972 5.11091 115.577 4.24162 115.472 3.51386Z" fill="#A762A4"/>
    <path fill-rule="evenodd" clip-rule="evenodd" d="M121.427 7.236C121.19 7.22527 120.927 7.24741 120.636 7.30882C120.757 7.62111 120.815 7.95874 120.799 8.30846C120.732 9.77654 119.391 10.9138 117.804 10.8524C117.115 10.8255 116.494 10.5757 116.016 10.1813C115.981 10.2148 115.944 10.2489 115.91 10.2813C115.691 10.4897 115.48 10.6942 115.274 10.8956C115.526 11.2809 115.755 11.6736 115.936 12.0826C116.046 12.3289 116.137 12.5773 116.222 12.8271C117.315 12.1616 118.547 11.5939 119.894 11.2606C123.484 10.3749 123.701 7.32457 121.427 7.236Z" fill="#ED7226"/>
    <path fill-rule="evenodd" clip-rule="evenodd" d="M102.018 7.51136L102.649 7.19861C102.689 7.17761 102.731 7.15843 102.786 7.13446C103.958 6.6464 105.154 6.37954 106.345 6.32247C106.34 6.30329 106.335 6.28617 106.33 6.267C106.227 5.89787 106.118 5.54768 106.008 5.21668C105.57 5.53741 105.018 5.72802 104.418 5.72802C103.004 5.72802 101.855 4.66698 101.855 3.35961C101.855 2.26067 102.665 1.33636 103.764 1.0695C103.03 0.315028 102.283 0 101.607 0C99.0748 0.0011414 97.4814 4.39144 100.905 6.64275C101.303 6.90458 101.671 7.1977 102.018 7.51136Z" fill="#D35E9E"/>
    <path fill-rule="evenodd" clip-rule="evenodd" d="M101.959 11.3613C100.478 11.3613 99.2778 12.4708 99.2778 13.8398C99.2778 14.4657 99.5287 15.038 99.9425 15.4743C100.811 14.4153 102.186 13.732 103.733 13.732C104.043 13.732 104.346 13.7585 104.639 13.8108C104.622 12.4555 103.429 11.3613 101.959 11.3613Z" fill="#ACCD6C"/>
    <path fill-rule="evenodd" clip-rule="evenodd" d="M111.121 17.6111L105.958 12.8711C104.758 13.802 103.994 15.1966 103.994 16.7578C103.994 17.0498 104.031 17.3331 104.083 17.6111H111.121Z" fill="#F29325"/>
    <path fill-rule="evenodd" clip-rule="evenodd" d="M108.448 17.611C108.262 15.6539 106.384 14.479 106.384 14.479C105.865 14.156 105.275 13.9256 104.639 13.811V13.84C104.639 15.2086 103.44 16.3182 101.959 16.3182C101.155 16.3182 100.435 15.9916 99.9427 15.4745C99.4449 16.0815 99.1278 16.8157 99.0271 17.611H108.448Z" fill="#38B5AA"/>
    <path fill-rule="evenodd" clip-rule="evenodd" d="M103.733 13.7324C102.186 13.7324 100.811 14.4157 99.9426 15.4747C100.435 15.9917 101.155 16.3184 101.959 16.3184C103.44 16.3184 104.639 15.2087 104.639 13.8404V13.8114C104.346 13.7589 104.043 13.7324 103.733 13.7324Z" fill="#CEDF9A"/>
    <path fill-rule="evenodd" clip-rule="evenodd" d="M104.965 13.8854C105.246 13.5073 105.579 13.1658 105.958 12.8709L104.53 11.5605C104.222 11.6452 103.942 11.7865 103.693 11.9637C104.261 12.4123 104.63 13.0683 104.64 13.8109C104.75 13.8313 104.857 13.8591 104.965 13.8854Z" fill="#D22724"/>
    </svg>
    