<svg width="191" height="33" viewBox="0 0 191 33" fill="none" xmlns="http://www.w3.org/2000/svg">
    <g clip-path="url(#clip0_25_2040)">
    <path d="M81.2954 16.5229C81.2954 11.3809 85.1406 7.43256 90.2978 7.43256C93.6454 7.43256 96.5406 9.17718 97.8978 11.8859L94.7311 13.7683C93.9621 12.1614 92.3335 11.1054 90.2525 11.1054C87.2668 11.1054 84.9597 13.401 84.9597 16.5229C84.9597 19.6449 87.2216 21.9404 90.2525 21.9404C92.2882 21.9404 93.9621 20.8845 94.7763 19.2776L97.943 21.114C96.4954 23.8228 93.6002 25.6133 90.2978 25.6133C85.1406 25.6133 81.2954 21.6191 81.2954 16.5229Z" fill="white"/>
    <path d="M98.1692 16.5229C98.1692 11.3809 102.195 7.43256 107.172 7.43256C112.193 7.43256 116.174 11.3809 116.174 16.5229C116.174 21.6191 112.193 25.6133 107.172 25.6133C102.195 25.6133 98.1692 21.6191 98.1692 16.5229ZM112.464 16.5229C112.464 13.3551 110.157 11.0595 107.172 11.0595C104.186 11.0595 101.879 13.3551 101.879 16.5229C101.879 19.6908 104.186 21.9864 107.172 21.9864C110.157 21.9864 112.464 19.6449 112.464 16.5229Z" fill="white"/>
    <path d="M133.591 14.5488V25.1542H129.881V14.9161C129.881 12.2991 128.388 10.9218 126.081 10.9218C123.684 10.9218 121.738 12.391 121.738 15.8802V25.1542H118.074V7.84577C121.014 7.84577 121.738 8.71808 121.738 10.0495C122.869 8.25897 124.724 7.38666 127.031 7.38666C130.831 7.43257 133.591 10.0495 133.591 14.5488Z" fill="white"/>
    <path d="M141.1 11.4727V19.7826C141.1 21.9863 142.548 21.9404 145.307 21.8027V25.1542C139.652 25.8429 137.39 24.236 137.39 19.7826V11.4727H134.631V7.84575H137.39V6.88161C137.39 4.54015 138.25 3.94331 139.969 3.34646L141.055 3.02509V7.84575H145.262V11.4268H141.1V11.4727Z" fill="white"/>
    <path d="M146.438 2.88737C146.438 1.55595 147.479 0.5 148.791 0.5C150.103 0.5 151.143 1.55595 151.143 2.88737C151.143 4.17288 150.103 5.27475 148.791 5.27475C147.524 5.27475 146.438 4.17288 146.438 2.88737ZM146.981 7.84577H150.645V25.1083H146.981V7.84577Z" fill="white"/>
    <path d="M169.51 7.84578C168.424 7.84578 167.791 8.12125 167.429 8.53445C167.067 8.99356 166.976 9.63631 166.976 10.3709C165.664 8.48854 163.674 7.34076 161.05 7.34076C156.255 7.34076 152.455 11.335 152.455 16.2475C152.455 21.2059 156.255 25.1542 161.05 25.1542C163.674 25.1542 165.664 24.0065 166.976 22.1241V24.3738C166.976 27.4039 165.076 29.1485 161.91 29.1485C158.924 29.1485 157.702 27.9548 156.933 26.4857L154.264 29.1944C155.802 31.3981 158.471 32.5459 161.819 32.5459C166.298 32.5459 170.595 29.9749 170.595 24.3738V7.84578H169.51ZM161.593 21.7568C158.471 21.7568 156.164 19.4613 156.164 16.3393C156.164 13.2174 158.471 10.9218 161.593 10.9218C164.714 10.9218 167.021 13.2174 167.021 16.3393C167.021 19.4613 164.669 21.7568 161.593 21.7568Z" fill="white"/>
    <path d="M172.495 16.5229C172.495 11.3809 176.522 7.43256 181.498 7.43256C186.519 7.43256 190.5 11.3809 190.5 16.5229C190.5 21.6191 186.519 25.6133 181.498 25.6133C176.522 25.6133 172.495 21.6191 172.495 16.5229ZM186.836 16.5229C186.836 13.3551 184.529 11.0595 181.543 11.0595C178.557 11.0595 176.25 13.3551 176.25 16.5229C176.25 19.6908 178.557 21.9864 181.543 21.9864C184.483 21.9864 186.836 19.6449 186.836 16.5229Z" fill="white"/>
    <path d="M78.8072 14.8702V25.5674H75.1429V15.0997C75.1429 12.6664 73.831 11.335 71.8405 11.335C69.6691 11.335 68.131 12.7582 68.131 15.8802V25.5674H64.4667V15.0997C64.4667 12.6664 63.2905 11.335 61.2548 11.335C59.1739 11.335 57.4548 12.7582 57.4548 15.8802V25.5674H53.7905V8.30487C56.3239 8.30487 57.4548 8.85581 57.4548 10.3709C58.5405 8.67216 60.2143 7.84576 62.3405 7.84576C64.5572 7.84576 66.1858 8.85581 67.181 10.5545C68.312 8.76398 70.1215 7.84576 72.3834 7.84576C76.2286 7.84576 78.8072 10.5545 78.8072 14.8702Z" fill="white"/>
    <path d="M47.9097 22.9505C47.9097 23.9147 47.6835 24.6492 47.2763 25.1543C46.7335 25.8429 45.8739 26.0266 45.4216 26.0266C45.4216 26.0266 45.3763 26.0266 45.3311 26.0266H45.2858H45.2406C44.0644 26.0266 43.2954 25.0165 43.2501 24.9247L43.2049 24.8788C40.0382 21.0223 32.1668 13.1715 28.4573 9.49859C28.5025 9.45268 28.5478 9.45268 28.593 9.40677C28.7739 9.26904 28.9097 9.1313 29.0906 8.99357C29.2263 8.90175 29.3168 8.80993 29.4525 8.67219C29.5882 8.58037 29.6787 8.48855 29.7692 8.39673C29.8597 8.35082 29.9049 8.25899 29.9954 8.21308C31.3525 7.06531 32.6644 5.96344 33.5692 5.22886C33.6597 5.13704 33.7954 5.04522 33.8858 4.9534C33.9763 4.86158 34.112 4.76975 34.2025 4.67793C34.5192 4.40247 34.7001 4.26473 34.7001 4.26473C34.7001 4.26473 36.5549 2.61193 38.9073 3.94336C39.2239 4.127 39.5406 4.44838 39.9025 4.90749C39.9478 4.9534 39.993 4.99931 40.0382 5.09113L40.0835 5.13704C40.1739 5.22886 40.2644 5.3666 40.3549 5.50433C40.4454 5.64206 40.5358 5.7798 40.6263 5.91753C40.6716 6.00935 40.7168 6.05526 40.762 6.14709C40.8073 6.193 40.8525 6.23891 40.8525 6.33073C40.8977 6.42255 40.9882 6.56029 41.0335 6.65211C41.0787 6.74393 41.1239 6.83575 41.1692 6.92757C41.2144 6.97348 41.2144 7.0194 41.2597 7.06531C41.3501 7.20304 41.3954 7.34077 41.4858 7.47851C41.4858 7.52442 41.5311 7.52442 41.5311 7.57033C41.7573 7.98353 42.0287 8.44264 42.3001 8.94766C42.3454 9.03948 42.4358 9.17722 42.4811 9.26904C42.5263 9.36086 42.5716 9.49859 42.662 9.59041C42.7525 9.77406 42.843 9.9577 42.9335 10.1413C42.9335 10.1873 42.9787 10.2332 42.9787 10.2791C43.0692 10.4168 43.1144 10.6005 43.2049 10.7841C43.4763 11.2891 43.7025 11.8401 43.9287 12.391C44.0192 12.6205 44.1549 12.8501 44.2454 13.1256C44.6073 13.9061 44.9239 14.7325 45.2406 15.5129C45.4216 15.9261 45.6025 16.3853 45.7382 16.7984C45.8287 17.028 45.9192 17.2116 45.9644 17.4412C46.1454 17.9003 46.3263 18.3594 46.462 18.8185C46.5525 19.0481 46.5977 19.2317 46.6882 19.4613C46.7787 19.6908 46.8239 19.8745 46.9144 20.104C47.0049 20.2877 47.0501 20.5172 47.0954 20.7009C47.1406 20.8845 47.2311 21.1141 47.2763 21.2977C47.3216 21.4355 47.3668 21.5732 47.412 21.7109C47.5477 22.0782 47.6382 22.4914 47.7287 22.8128C47.8192 22.6751 47.8644 22.7669 47.9097 22.9505Z" fill="white"/>
    <path d="M47.0501 26.8998C46.6429 27.4967 46.3262 27.7721 46.3262 27.7721C46.3262 27.7721 44.9239 29.379 42.481 29.379C42.481 29.379 40.8524 29.4249 39.5858 28.5526C39.1334 28.2312 37.7762 27.3589 35.8762 26.3489C34.8358 25.798 33.5691 25.1552 32.2572 24.6043C32.212 24.6043 32.212 24.5584 32.1667 24.5584C30.8096 23.9615 29.4072 23.4106 27.9596 22.9974C27.9596 22.9974 27.9143 22.9974 27.8691 22.9515C26.0143 22.4005 24.1143 22.0332 22.3953 22.0332C15.4286 22.0332 3.21434 29.1035 3.21434 29.1035C3.21434 29.1035 2.85243 29.3331 2.30957 29.3331C1.76672 29.3331 0.771478 29.0576 0.50005 27.818C0.364335 27.2671 1.08815 25.3848 2.98815 22.2628C2.98815 22.2628 2.98815 22.2169 3.03338 22.2169C4.02862 20.5641 5.34053 18.5899 7.01434 16.2485C9.32148 12.9888 12.3072 9.13224 16.1524 4.58705C16.1524 4.58705 17.1024 3.43927 18.7762 3.43927C18.7762 3.43927 20.1334 3.34745 21.4001 4.4034C21.8524 4.77069 23.7524 6.60713 26.4667 9.22406C31.4881 14.1365 39.2691 21.9873 42.2548 25.7061C42.2548 25.7061 43.3858 27.313 45.2405 27.313H45.331C45.3762 27.313 45.4667 27.313 45.512 27.313C45.7834 27.2671 46.4167 27.2212 47.0501 26.8998Z" fill="white"/>
    <path opacity="0.2" d="M47.9097 22.9505C47.9097 23.9147 47.6835 24.6492 47.2763 25.1543C46.7335 25.8429 45.8739 26.0266 45.4216 26.0266C45.4216 26.0266 45.3763 26.0266 45.3311 26.0266H45.2858H45.2406C44.0644 26.0266 43.2954 25.0165 43.2501 24.9247L43.2049 24.8788C40.0382 21.0223 32.1668 13.1715 28.4573 9.49859C28.5025 9.45268 28.5478 9.45268 28.593 9.40677C28.7739 9.26904 28.9097 9.1313 29.0906 8.99357C29.2263 8.90175 29.3168 8.80993 29.4525 8.67219C29.5882 8.58037 29.6787 8.48855 29.7692 8.39673C32.212 9.45268 37.2787 11.886 46.1001 17.3035C46.2811 17.7626 46.462 18.2217 46.5978 18.6808C46.6882 18.9104 46.7335 19.094 46.8239 19.3236C46.9144 19.5531 46.9597 19.7368 47.0501 19.9663C47.1406 20.15 47.1858 20.3795 47.2311 20.5632C47.2763 20.7468 47.3668 20.9764 47.412 21.16C47.4573 21.2977 47.5025 21.4355 47.5478 21.5732C47.6835 21.9405 47.7739 22.3537 47.8644 22.6751C47.8192 22.6751 47.8644 22.7669 47.9097 22.9505Z" fill="white"/>
    <path opacity="0.2" d="M27.8691 22.9046C26.0143 22.3537 24.1143 21.9864 22.3953 21.9864C15.4286 22.0323 3.21434 29.1026 3.21434 29.1026C3.21434 29.1026 2.85243 29.3322 2.30957 29.3322C1.76672 29.3322 0.771478 29.0567 0.50005 27.8171C0.364335 27.2662 1.08815 25.3838 2.98815 22.2619C2.98815 22.2619 2.98814 22.2159 3.03338 22.2159C13.6191 18.5431 26.7381 22.5373 27.8691 22.9046Z" fill="white"/>
    </g>
    <defs>
    <clipPath id="clip0_25_2040">
    <rect width="190" height="32" fill="white" transform="translate(0.5 0.5)"/>
    </clipPath>
    </defs>
    </svg>
    