<svg width="390" height="268" viewBox="0 0 390 268" fill="none" xmlns="http://www.w3.org/2000/svg">
<path d="M129.187 55.7339C62.001 65.3788 28.756 120.215 24.4844 158.907C19.2658 206.139 41.8994 231.103 84.1321 227.863C129.921 224.343 182.591 219.548 239.417 227.863C296.262 236.179 338.785 243.801 359.66 193.179C380.534 142.557 353.088 46.1264 276.18 29.1775C219.528 16.6859 199.156 45.6956 129.187 55.7339Z" fill="#F1F1F1"/>
<path d="M285.303 242.939C285.303 242.939 285.805 208.48 274.034 198.254C262.263 188.029 230.623 142.314 256.214 131.058C281.804 119.802 289.497 161.098 305.907 175.088C322.317 189.077 308.42 241.666 308.42 241.666L285.303 242.939Z" fill="#486DB7"/>
<path d="M301.384 249.813L300.224 249.7C300.263 249.288 304.496 208.611 296.861 190.351C293.324 181.905 286.288 173.795 278.808 165.199C269.801 154.843 260.504 144.149 255.653 131.227L256.735 130.852C261.509 143.587 270.748 154.206 279.678 164.488C287.216 173.14 294.31 181.324 297.924 189.939C305.694 208.442 301.442 249.419 301.384 249.813Z" fill="#F1F1F1"/>
<path d="M275.6 162.109C274.556 159.337 274.614 153.401 274.672 147.108C274.73 141.059 274.788 134.204 273.57 132.5L274.517 131.863C275.928 133.867 275.87 140.31 275.812 147.127C275.754 153.045 275.716 159.15 276.682 161.735L275.6 162.109Z" fill="#F1F1F1"/>
<path d="M281.186 167.933C280.277 166.885 274.614 164.6 268.642 162.184C256.484 157.296 247.11 153.288 246.163 150.235L247.264 149.917C248.134 152.726 260.253 157.595 269.086 161.154C276.47 164.132 281.051 166.004 282.075 167.222L281.186 167.933Z" fill="#F1F1F1"/>
<path d="M293.498 183.702C292.783 182.354 292.3 177.335 291.604 169.207C291.005 162.184 290.328 154.243 289.42 152.67L290.425 152.108C291.469 153.887 292.087 161.285 292.764 169.113C293.305 175.425 293.846 181.942 294.523 183.178L293.498 183.702Z" fill="#F1F1F1"/>
<path d="M298.833 196.382C296.88 193.366 287.274 191.007 278.789 188.928C270.091 186.793 261.877 184.789 259.886 181.942L260.833 181.305C262.592 183.796 270.98 185.856 279.079 187.842C288.608 190.183 297.615 192.392 299.818 195.782L298.833 196.382Z" fill="#F1F1F1"/>
<path d="M300.901 225.129C300.07 218.537 291.565 214.772 285.361 212.019C283.176 211.064 281.302 210.221 280.219 209.435L280.915 208.536C281.901 209.248 283.737 210.053 285.844 210.989C291.932 213.686 301.133 217.769 302.041 224.979L300.901 225.129Z" fill="#F1F1F1"/>
<path d="M302.331 214.098L301.171 214.023C301.345 211.589 303.665 206.363 306.119 200.82C308.729 194.902 311.705 188.197 311.493 185.838L312.652 185.744C312.904 188.366 310.12 194.64 307.202 201.251C304.882 206.476 302.505 211.851 302.331 214.098Z" fill="#F1F1F1"/>
<path d="M296.088 241.347C309.85 222.526 294.02 160.124 325.371 134.822C356.702 109.521 378.795 124.11 358.732 159.993C338.669 195.876 331.846 238.051 320.964 241.947C310.082 245.842 296.088 241.347 296.088 241.347Z" fill="#486DB7"/>
<path d="M307.221 250L306.081 249.794C306.139 249.494 311.976 219.567 324.462 180.144C332.657 154.262 342.747 142.07 349.415 133.998C353.126 129.503 355.813 126.245 356.837 122.499L357.958 122.78C356.876 126.75 354.131 130.084 350.324 134.691C343.713 142.688 333.721 154.786 325.583 180.462C313.116 219.848 307.279 249.719 307.221 250Z" fill="#F1F1F1"/>
<path d="M331.343 164.956L330.435 164.244C334.107 159.805 341.742 156.359 349.145 153.007C356.683 149.599 363.815 146.377 365.072 142.763L366.173 143.119C364.743 147.183 357.417 150.498 349.647 154.018C342.361 157.333 334.842 160.742 331.343 164.956Z" fill="#F1F1F1"/>
<path d="M325.583 180.481L324.481 180.163C325.313 177.522 325.197 169.638 325.081 161.304C324.868 145.741 324.926 134.541 327.632 132.35L328.386 133.212C325.892 135.234 326.086 149.692 326.24 161.285C326.356 170.068 326.472 177.653 325.583 180.481Z" fill="#F1F1F1"/>
<path d="M317.871 206.457L316.75 206.157C318.084 201.494 325.486 196.531 333.334 191.306C340.234 186.699 347.386 181.923 349.338 177.747L350.401 178.215C348.333 182.672 341.046 187.542 334.01 192.242C326.665 197.112 319.089 202.187 317.871 206.457Z" fill="#F1F1F1"/>
<path d="M315.475 215.278L314.354 214.997C315.571 210.296 311.725 195.763 308.922 185.163C306.854 177.372 305.695 172.878 305.946 171.529L307.086 171.717C306.874 172.896 308.42 178.721 310.043 184.882C313.039 196.213 316.75 210.296 315.475 215.278Z" fill="#F1F1F1"/>
<path d="M310.256 236.347L309.115 236.104C309.715 233.444 314.856 230.785 320.809 227.714C326.356 224.848 332.638 221.608 333.682 218.705L334.784 219.08C333.585 222.376 327.362 225.597 321.35 228.706C316.151 231.403 310.739 234.193 310.256 236.347Z" fill="#F1F1F1"/>
<path d="M120.605 179.695C120.605 179.695 120.566 161.004 120.141 145.497C119.716 129.99 134.869 112.929 138.426 104.09C141.982 95.2312 138.252 81.6909 151.086 75.6979C151.086 75.6979 143.548 88.7326 150.371 95.4934C157.194 102.254 148.457 125.514 147.104 135.497C145.751 145.441 137.981 171.866 120.605 179.695Z" fill="#486DB7"/>
<path d="M102.571 210.465C102.571 210.465 93.2936 168.701 78.7199 150.966C64.1463 133.23 65.132 135.927 43.8514 131.582C22.59 127.237 23.7497 142.351 23.7497 142.351C23.7497 142.351 35.6561 135.796 42.5177 144.449C49.3986 153.101 51.3701 164.506 64.8421 182.429C78.314 200.352 102.571 210.465 102.571 210.465Z" fill="#486DB7"/>
<path d="M57.2267 83.751C61.4983 98.8832 93.8928 106.861 101.334 122.949C108.776 139.036 105.567 177.953 105.567 177.953C105.567 177.953 85.3303 161.042 83.9579 146.097C82.5856 131.152 72.0516 125.215 63.895 110.008C55.7577 94.7818 57.2267 83.751 57.2267 83.751Z" fill="#486DB7"/>
<path d="M114.362 248.558L113.202 248.633C113.183 248.202 110.187 205.502 105.007 178.065L104.601 175.912C99.5561 149.149 96.5215 132.987 81.2133 118.66C65.48 103.902 56.7821 84.1817 56.7048 83.9757L57.7679 83.5449C57.8452 83.7322 66.4657 103.266 82.0251 117.855C97.5846 132.425 100.658 148.719 105.741 175.706L106.147 177.859C111.346 205.352 114.342 248.127 114.362 248.558Z" fill="#486DB7"/>
<path d="M112.062 234.343C110.709 220.653 98.2417 204.64 85.0597 187.692C77.2124 177.597 69.0944 167.184 62.2908 156.153L63.2765 155.573C70.0415 166.548 78.1401 176.942 85.9682 186.999C99.2661 204.079 111.81 220.222 113.202 234.231L112.062 234.343Z" fill="#F1F1F1"/>
<path d="M109.626 209.997C108.118 198.329 113.569 189.733 118.826 181.437C122.17 176.155 125.63 170.705 127.254 164.506C131.39 148.719 134.521 118.866 134.54 118.566L135.7 118.679C135.661 118.978 132.53 148.906 128.375 164.769C126.712 171.136 123.195 176.661 119.812 182.017C114.419 190.538 109.317 198.573 110.766 209.847L109.626 209.997Z" fill="#F1F1F1"/>
<path d="M169.1 189.602C169.1 189.602 164.828 228.556 161.156 233.051C157.503 237.546 145.133 239.793 145.133 245.786C145.133 251.779 247.96 251.03 248.733 245.786C249.506 240.542 238.953 236.797 234.952 233.051C230.951 229.305 226.312 189.602 226.312 189.602H169.1Z" fill="#5F195B"/>
<path d="M161.194 241.104L161.136 239.98C161.581 239.962 205.225 237.752 234.971 239.98L234.875 241.104C205.205 238.894 161.639 241.085 161.194 241.104Z" fill="#F1F1F1"/>
<path d="M84.6151 50.4151C77.193 53.2992 76.0333 192.299 84.5378 199.79C93.0423 207.281 304.109 205.783 307.202 199.79C310.294 193.797 316.905 56.7265 304.805 49.2353C292.705 41.744 102.668 43.3734 84.6151 50.4151Z" fill="#5F195B"/>
<path d="M91.5733 58.4119C85.7361 62.4571 87.7077 171.323 91.5733 175.818C95.439 180.313 292.589 180.313 298.001 175.818C303.413 171.323 301.867 63.1126 298.001 58.4119C294.136 53.7111 97.7585 54.1232 91.5733 58.4119Z" fill="#486DB7"/>
<path d="M219.915 179.189C219.915 179.189 219.915 164.581 222.621 159.337C225.327 154.094 235.764 136.864 240.016 118.885C244.269 100.906 239.243 55.9585 233.445 55.9585C227.646 55.9585 228.033 89.2945 228.033 89.2945C228.033 89.2945 228.419 47.3436 221.461 47.3436C214.503 47.3436 214.116 86.6726 214.116 86.6726C214.116 86.6726 214.503 39.8524 206.385 39.8524C198.267 39.8524 198.653 86.298 198.653 86.298C198.653 86.298 198.325 48.0928 190.748 48.0928C183.171 48.0928 184.737 106.524 182.804 123.754C180.871 140.984 190.748 179.189 190.748 179.189H219.915Z" fill="white"/>
<path d="M237.271 128.249C238.334 125.196 239.262 122.05 240.016 118.885C240.963 114.877 241.446 109.54 241.562 103.659C223.451 106.524 194.652 117.443 182.958 122.05C182.9 122.649 182.842 123.211 182.784 123.735C182.707 124.428 182.649 125.177 182.61 125.927C192.97 129.485 217.788 136.264 237.271 128.249Z" fill="#F1F1F1"/>
<path d="M115.483 15.8805C112.371 20.7123 111.675 114.765 115.483 121.076C119.29 127.387 266.399 123.23 272.913 115.046C279.427 106.861 275.619 27.9601 272.913 17.9593C270.207 7.996 120.914 7.47161 115.483 15.8805Z" fill="#F1F1F1"/>
<path d="M194.71 95.8681C179.905 95.8681 117.686 19.4764 115.038 16.2177L115.947 15.5248C116.585 16.3114 180.446 94.7444 194.71 94.7444C208.975 94.7444 271.85 18.4089 272.469 17.641L273.377 18.334C270.768 21.499 209.516 95.8681 194.71 95.8681Z" fill="#A762A4"/>
<path d="M115.908 121.469L115.057 120.701C115.347 120.402 144.572 89.6504 167.496 74.4244L168.153 75.3608C145.345 90.5118 116.198 121.17 115.908 121.469Z" fill="#A762A4"/>
<path d="M272.488 115.457C247.303 89.2569 224.978 72.2706 224.766 72.102L225.481 71.2218C225.713 71.3904 248.095 88.4329 273.338 114.708L272.488 115.457Z" fill="#A762A4"/>
<path d="M182.185 83.1141C174.454 83.1141 180.098 99.7821 177.778 107.648C175.459 115.514 168.501 122.63 170.434 135.74C172.366 148.85 183.19 157.465 185.51 163.458C187.829 169.45 185.51 179.189 185.51 179.189H211.41C211.41 179.189 209.864 169.825 209.09 150.348C208.317 130.871 192.913 127.125 190.748 124.129C188.602 121.132 194.787 113.266 194.401 103.153C194.014 93.04 186.225 83.1141 182.185 83.1141Z" fill="white"/>
<path d="M196.604 198.123C196.411 198.123 196.218 198.123 196.025 198.105C191.927 197.786 190.593 194.771 190.69 192.299C190.806 189.359 192.855 186.325 196.083 186.325C199.136 186.325 201.417 187.355 202.538 189.209C203.524 190.876 203.447 193.067 202.345 194.939C201.127 196.925 198.982 198.123 196.604 198.123ZM196.083 187.43C193.57 187.43 191.946 189.92 191.85 192.336C191.772 194.415 192.835 196.737 196.121 196.981C196.276 197 196.45 197 196.604 197C198.576 197 200.335 196.007 201.321 194.34C202.229 192.823 202.306 191.063 201.514 189.733C200.625 188.254 198.692 187.43 196.083 187.43Z" fill="#F1F1F1"/>
<path d="M102.281 12.997C122.402 16.2369 124.78 29.3466 124.393 46.052C124.026 62.7574 134.521 73.6571 141.634 73.6571C141.634 73.6571 132.26 76.9345 125.147 73.6571C118.015 70.3797 110.902 79.4628 92.5398 75.1179C74.1778 70.7543 57.6713 57.8319 65.5573 35.4144C73.424 12.997 88.7901 10.8058 102.281 12.997Z" fill="#6C2569"/>
<path d="M93.0037 39.3093C93.0037 39.3093 99.9619 25.6753 106.92 32.5485C113.878 39.4217 96.7147 51.5013 93.4676 59.1798C93.4676 59.1798 75.3761 42.3058 82.7982 32.5485C90.2204 22.7911 93.0037 39.3093 93.0037 39.3093Z" fill="white"/>
<path d="M238.122 88.3206C238.122 88.3206 245.08 74.6866 252.038 81.5598C258.997 88.433 241.833 100.513 238.586 108.191C238.586 108.191 220.494 91.3171 227.916 81.5598C235.339 71.8025 238.122 88.3206 238.122 88.3206Z" fill="#A762A4"/>
<path d="M247.342 62.5134C267.115 65.7159 269.453 78.582 269.086 95.0065C268.719 111.431 279.04 122.143 286.037 122.143C286.037 122.143 276.818 125.365 269.821 122.143C262.824 118.922 255.808 127.856 237.755 123.567C219.702 119.278 203.485 106.562 211.217 84.5376C218.968 62.5134 234.082 60.3784 247.342 62.5134Z" fill="white"/>
<path d="M238.122 88.3206C238.122 88.3206 245.08 74.6866 252.039 81.5598C258.997 88.433 241.833 100.513 238.586 108.191C238.586 108.191 220.495 91.3171 227.917 81.5598C235.339 71.8025 238.122 88.3206 238.122 88.3206Z" fill="#6C2569"/>
<path d="M179.367 229.921C179.243 231.095 179.052 232.245 178.787 233.362C175.384 247.601 160.122 257.474 132.891 259.268C77.9072 262.886 47.6142 259.67 36.8246 234.342C34.3845 228.618 33.4381 221.221 33.5716 213.14C34.0201 185.433 47.0829 149.607 55.9143 145.096C67.3259 139.267 75.4177 142.282 75.4177 142.282C93.8839 146.101 123.347 198.564 146.378 200.573C169.408 202.584 180.979 214.307 179.367 229.921Z" fill="white"/>
<path d="M58.4024 177.056C58.4024 177.056 72.0966 187.709 76.8687 199.569C81.6408 211.428 81.6408 221.881 91.6 223.89C101.559 225.9 120.234 227.106 139.115 221.679C157.997 216.252 158.412 209.819 138.493 206.403C118.575 202.986 96.7886 184.695 90.5642 171.629C84.3398 158.563 84.5467 153.338 80.6049 149.921C76.6631 146.505 70.8525 145.298 65.0433 151.931C59.2341 158.563 55.913 169.62 58.4024 177.056Z" fill="#A762A4"/>
<path d="M100.024 141.498C100.263 141.182 100.558 140.898 100.785 140.578C101.802 139.147 100.688 137.524 99.4182 136.686C98.5558 136.117 98.4277 135.664 98.6386 134.621C98.8055 133.796 99.2887 133.249 99.1245 132.389C98.9883 131.671 98.664 130.646 98.0846 130.179C97.492 129.7 96.619 129.739 95.9355 129.457C94.2403 128.758 95.8154 127.449 95.0919 126.222C94.008 124.384 90.9099 124.825 89.0664 124.554C89.0798 124.556 89.0891 124.552 89.0918 124.539C87.5087 123.929 87.2324 122.318 85.2021 122.645C84.2436 122.799 83.5789 123.382 82.7793 123.839C81.3924 124.631 80.2244 123.542 78.8816 124.031C77.3638 124.585 76.1531 125.91 75.726 127.424C75.132 129.532 73.8719 128.915 72.1566 129.672C71.2462 130.074 70.113 130.355 70.3025 131.59C70.404 132.249 71.0046 132.815 71.0527 133.469C71.1128 134.303 70.2985 134.776 69.8193 135.397C69.304 136.065 68.9677 137.04 69.3161 137.842C69.6912 138.708 70.7417 139.134 70.7911 140.189C70.8591 141.659 68.7247 142.864 69.595 144.471C70.1704 145.532 71.4171 145.532 72.2461 146.211C72.8027 146.668 72.7239 147.349 72.6599 147.959C72.485 149.633 73.2872 151.117 75.3122 150.731C76.7872 150.449 77.8644 150.287 78.9123 151.517C79.8266 152.59 80.725 153.122 82.2707 152.995C83.2532 152.913 84.1635 152.519 85.1033 152.264C85.9843 152.025 86.2553 152.167 87.0455 152.404C88.7127 152.903 89.6778 151.363 91.2275 151.382C91.8229 151.39 92.214 151.825 92.8214 151.923C93.5262 152.037 94.2964 151.812 94.8997 151.468C95.6926 151.015 96.0677 150.479 96.3373 149.639C96.5696 148.915 96.7365 148.658 97.4586 148.363C99.2887 147.614 100.284 146.794 100.164 144.723C100.116 143.903 99.5143 143.246 99.6064 142.44C99.6491 142.073 99.8159 141.773 100.024 141.498Z" fill="#191919"/>
<path d="M166.78 262.417C166.78 265.265 139.469 267.576 105.779 267.576C72.0888 267.576 44.7778 265.267 44.7778 262.417C44.7778 259.567 72.0888 257.257 105.779 257.257C139.469 257.258 166.78 259.568 166.78 262.417Z" fill="#486DB7"/>
<path d="M100.315 167.543C100.315 167.543 111.866 179.335 116.568 180.474L109.029 185.097L99.0005 179.67C99.0018 179.67 95.267 170.022 100.315 167.543Z" fill="#F1F1F1"/>
<path d="M100.316 167.543L100.218 167.632C100.219 167.633 103.108 170.583 106.588 173.676C108.327 175.223 110.215 176.807 111.965 178.077C112.84 178.712 113.68 179.268 114.453 179.704C115.226 180.138 115.929 180.452 116.537 180.6L116.569 180.474L116.498 180.366L109.027 184.947L99.0675 179.557L99.002 179.67L99.1275 179.625C99.1275 179.625 99.1222 179.612 99.1128 179.587C98.9687 179.206 97.8047 175.999 97.806 172.938C97.806 171.835 97.9569 170.752 98.3547 169.829C98.7524 168.906 99.3905 168.144 100.377 167.658L100.316 167.543L100.218 167.632L100.316 167.543L100.255 167.428C99.2063 167.942 98.5215 168.762 98.1077 169.73C97.6926 170.697 97.5391 171.812 97.5391 172.938C97.5404 176.268 98.8752 179.709 98.8779 179.716L98.8953 179.76L109.036 185.249L116.905 180.423L116.602 180.349C116.033 180.212 115.347 179.908 114.588 179.48C111.927 177.982 108.377 174.972 105.5 172.34C104.061 171.024 102.789 169.802 101.877 168.91C101.421 168.464 101.055 168.099 100.803 167.847C100.677 167.72 100.58 167.622 100.513 167.556C100.448 167.489 100.413 167.454 100.413 167.454L100.345 167.384L100.257 167.428L100.316 167.543Z" fill="#A762A4"/>
<path d="M106.435 192.835C106.435 192.835 124.867 190.055 136.21 195.013C147.553 199.971 144.511 208.279 140.913 215.381C137.316 222.483 133.997 225.164 133.997 225.164L127.081 222.35C127.081 222.35 129.571 210.29 133.721 204.259C133.721 204.259 117.537 212.567 108.822 212.165C100.108 211.763 100.246 195.951 100.246 195.951L106.435 192.835Z" fill="#191919"/>
<path d="M79.9654 154.714C79.9654 154.714 75.2093 157.158 71.6133 158.497C68.0172 159.837 66.9106 164.997 68.985 168.748C71.0593 172.501 76.2465 182.082 78.4597 187.777C80.6729 193.472 81.953 198.162 81.953 198.162C81.953 198.162 94.0213 200.407 100.73 198.061C107.439 195.717 106.437 192.836 106.437 192.836C106.437 192.836 102.114 178.129 101.491 174.175C101.491 174.175 103.359 170.088 101.837 166.471C100.315 162.853 96.3733 161.379 94.4364 159.167C92.4996 156.957 84.9964 154.079 79.9654 154.714Z" fill="white"/>
<path d="M94.646 139.485C94.4885 141.495 94.3056 143.514 94.5873 146.32C94.8115 148.611 93.6743 150.428 90.3879 153.001C90.3879 153.001 89.1838 153.106 87.8236 152.719C87.7983 152.719 87.7742 152.712 87.7489 152.704L88.0559 154.907L88.1226 155.374L88.164 155.712C88.164 155.712 88.2134 157.126 86.5035 157.529C84.7855 157.931 81.2588 156.322 79.964 154.715C79.964 154.715 80.1709 148.685 79.649 146.321C79.649 146.321 78.0472 143.757 77.1595 140.243C76.2799 136.722 79.0016 133.296 81.5338 132.034C84.074 130.78 91.7427 130.74 94.0747 135.87C94.0734 135.867 94.8049 137.475 94.646 139.485Z" fill="#F1F1F1"/>
<path d="M94.6461 139.486L94.5126 139.475C94.4152 140.722 94.307 141.976 94.307 143.423C94.307 144.308 94.3471 145.263 94.4552 146.331C94.4726 146.513 94.4819 146.69 94.4819 146.864C94.4806 147.861 94.1909 148.773 93.5248 149.74C92.8574 150.706 91.8109 151.723 90.3052 152.901L90.3892 153.002L90.3772 152.872H90.3719C90.3425 152.875 90.205 152.884 89.9888 152.884C89.5323 152.884 88.7274 152.84 87.8624 152.594L87.8437 152.589H87.825V152.602L87.8263 152.589H87.825V152.602L87.8263 152.589L87.8183 152.588L87.793 152.58L87.5901 152.514L87.9265 154.922L87.9932 155.389L88.1254 155.371L87.9932 155.386L88.0346 155.724L88.1667 155.708L88.0333 155.711V155.712V155.72C88.0333 155.777 88.0226 156.113 87.825 156.471C87.7262 156.651 87.5807 156.836 87.3658 157C87.1496 157.164 86.8626 157.308 86.4755 157.398C86.3073 157.438 86.1151 157.458 85.9068 157.456C85.0232 157.458 83.8378 157.105 82.7419 156.571C81.6447 156.038 80.6302 155.324 80.0722 154.63L79.9668 154.71L80.1003 154.714C80.1003 154.712 80.1403 153.53 80.1403 152.007C80.1403 151.048 80.1243 149.952 80.0709 148.931C80.0175 147.908 79.9294 146.961 79.7812 146.289L79.7759 146.268L79.7639 146.25C79.7639 146.25 79.7585 146.241 79.7465 146.222C79.5717 145.933 78.1167 143.483 77.2891 140.207C77.1756 139.756 77.1235 139.306 77.1235 138.861C77.1235 137.391 77.6975 135.981 78.5465 134.802C79.3941 133.624 80.5167 132.68 81.5939 132.143C82.0024 131.941 82.5604 131.768 83.2131 131.647C83.8659 131.525 84.616 131.455 85.4103 131.455C86.9921 131.455 88.7514 131.735 90.3012 132.432C91.8509 133.13 93.1898 134.242 93.9506 135.915L93.952 135.918C93.9827 135.986 94.5353 137.255 94.534 138.906C94.534 139.09 94.5273 139.279 94.5126 139.471L94.6461 139.486L94.7796 139.496C94.7956 139.297 94.8023 139.102 94.8023 138.911C94.8023 137.15 94.2002 135.826 94.1962 135.816C93.406 134.075 92.0084 132.918 90.4146 132.201C88.8195 131.484 87.0241 131.2 85.4103 131.2C84.6 131.2 83.8352 131.272 83.1637 131.397C82.4923 131.522 81.9143 131.7 81.4738 131.918C80.3512 132.478 79.2032 133.447 78.3289 134.66C77.4559 135.871 76.8592 137.33 76.8579 138.866C76.8579 139.33 76.9126 139.801 77.0301 140.273C77.9231 143.807 79.5316 146.381 79.5356 146.387L79.6504 146.32L79.5196 146.347C79.6624 146.992 79.7519 147.932 79.8039 148.948C79.856 149.963 79.872 151.054 79.872 152.011C79.872 152.77 79.8613 153.445 79.852 153.93C79.8466 154.172 79.8413 154.367 79.8386 154.502C79.8346 154.636 79.8319 154.708 79.8319 154.708L79.8306 154.755L79.86 154.793C80.4593 155.536 81.4965 156.26 82.6204 156.806C83.7444 157.352 84.9511 157.718 85.9055 157.719C86.1311 157.719 86.3433 157.698 86.5369 157.653C86.9574 157.555 87.2817 157.394 87.5287 157.207C87.8998 156.925 88.0933 156.581 88.1921 156.296C88.2909 156.012 88.2989 155.786 88.2989 155.722V155.707V155.7L88.2562 155.355L88.1894 154.888L87.8824 152.686L87.7503 152.703L87.7075 152.826C87.7329 152.833 87.7689 152.848 87.825 152.849V152.72L87.7876 152.844C88.6873 153.098 89.5163 153.144 89.9901 153.144C90.2464 153.144 90.3986 153.131 90.4026 153.131L90.4426 153.127L90.4747 153.102C91.9911 151.915 93.0576 150.885 93.7491 149.885C94.4405 148.885 94.7529 147.913 94.7515 146.866C94.7515 146.682 94.7422 146.497 94.7235 146.31C94.6167 145.249 94.5767 144.303 94.5767 143.426C94.5767 141.992 94.6835 140.745 94.7822 139.497L94.6461 139.486Z" fill="#A762A4"/>
<path d="M80.25 143.227C80.25 143.227 80.2646 143.242 80.2927 143.272C80.3874 143.374 80.6264 143.639 80.84 143.942C81.0549 144.243 81.2417 144.584 81.2404 144.826C81.2404 144.864 81.2364 144.899 81.2271 144.931C81.167 145.146 81.0429 145.268 80.9281 145.391C80.8133 145.513 80.7065 145.638 80.7065 145.847C80.7065 145.946 80.7305 146.064 80.7879 146.207C81.0736 146.938 81.2564 147.241 81.2578 147.242C81.2671 147.257 81.2871 147.263 81.3031 147.253C81.3192 147.244 81.3245 147.225 81.3152 147.209C81.3152 147.209 81.3045 147.191 81.2831 147.153C81.219 147.035 81.0642 146.73 80.8506 146.184C80.7959 146.044 80.7745 145.934 80.7745 145.845C80.7745 145.662 80.864 145.557 80.9788 145.434C81.0922 145.312 81.2284 145.178 81.2925 144.948C81.3031 144.909 81.3085 144.869 81.3085 144.826C81.3071 144.517 81.0535 144.112 80.8026 143.778C80.5516 143.444 80.3007 143.184 80.2993 143.184C80.2873 143.171 80.266 143.17 80.2526 143.183C80.2379 143.193 80.2366 143.214 80.25 143.227Z" fill="#5F195B"/>
<path d="M93.8647 140.239C93.8647 140.239 92.8793 139.938 91.5562 140.842C91.5562 140.842 91.7898 139.811 92.5682 139.686C93.3467 139.562 93.8647 140.239 93.8647 140.239Z" fill="#5F195B"/>
<path d="M88.5482 141.154C88.5482 141.154 87.8419 140.324 86.8084 140.47C85.775 140.616 84.9939 141.006 84.9939 141.006C84.9939 141.006 85.4479 140.03 86.4559 139.81C87.4653 139.591 88.2718 140.153 88.5482 141.154Z" fill="#5F195B"/>
<path d="M91.9071 142.777C91.8711 143.283 92.0086 143.703 92.2155 143.717C92.4225 143.731 92.6201 143.333 92.6575 142.827C92.6935 142.322 92.556 141.901 92.349 141.887C92.1421 141.874 91.9432 142.272 91.9071 142.777Z" fill="#5F195B"/>
<path d="M87.3685 143.381C87.3325 143.886 87.47 144.307 87.677 144.321C87.8839 144.335 88.0815 143.937 88.1189 143.431C88.155 142.925 88.0174 142.505 87.8105 142.491C87.6022 142.477 87.4046 142.875 87.3685 143.381Z" fill="#5F195B"/>
<path d="M90.6538 143.472C90.6538 143.472 90.7285 143.599 90.842 143.798C91.0116 144.097 91.2653 144.561 91.4776 145.009C91.6899 145.455 91.8568 145.891 91.8568 146.116C91.8568 146.182 91.8421 146.227 91.8194 146.248C91.7433 146.322 91.5937 146.403 91.4148 146.481C91.1464 146.596 90.81 146.705 90.5403 146.782C90.4054 146.821 90.2879 146.853 90.2038 146.875C90.1197 146.897 90.0703 146.91 90.0703 146.91C90.0529 146.914 90.0422 146.932 90.0463 146.949C90.0503 146.966 90.069 146.976 90.0863 146.972C90.0863 146.972 90.4455 146.884 90.8474 146.756C91.0476 146.692 91.2586 146.618 91.4415 146.54C91.6244 146.461 91.778 146.38 91.8661 146.295C91.9088 146.253 91.9235 146.191 91.9235 146.116C91.9235 145.948 91.8461 145.702 91.7326 145.42C91.3921 144.579 90.7125 143.44 90.7125 143.44C90.7032 143.424 90.6831 143.419 90.6671 143.428C90.6511 143.436 90.6444 143.457 90.6538 143.472Z" fill="#5F195B"/>
<path d="M90.2644 148.181C90.2644 148.181 90.227 148.186 90.1576 148.191C90.0881 148.196 89.9893 148.201 89.8678 148.201C89.4019 148.201 88.6088 148.123 87.9358 147.666C87.9211 147.656 87.8998 147.66 87.8891 147.674C87.8784 147.688 87.8824 147.709 87.8971 147.719C88.5874 148.186 89.3939 148.266 89.8665 148.266C90.1149 148.266 90.2711 148.244 90.2724 148.244C90.2911 148.242 90.3031 148.225 90.3004 148.208C90.2991 148.191 90.2817 148.178 90.2644 148.181Z" fill="#5F195B"/>
<path d="M83.7165 137.459C83.7165 137.459 84.2865 138.514 83.9755 140.876C83.6644 143.237 83.5083 142.383 83.3014 143.439C83.0945 144.494 83.6644 145.298 82.9383 146.152C82.2121 147.006 83.3014 143.89 81.0188 142.03C78.7362 140.171 79.3075 145.649 79.8775 146.704C80.4475 147.759 81.3819 148.161 81.3819 148.161L79.9295 149.819C79.9295 149.819 72.9269 146.603 73.29 139.819C73.6531 133.035 77.7511 131.176 77.7511 131.176C77.7511 131.176 81.175 126.502 89.8368 128.663C98.4999 130.824 97.4374 137.7 97.3586 138.713C97.1517 141.377 94.454 141.426 94.454 141.426C94.454 141.426 94.7129 138.613 92.8455 136.954C92.8455 136.954 92.3262 138.11 90.5109 138.562C88.6955 139.015 89.5778 137.406 89.9409 136.703C89.9409 136.703 88.9037 138.059 87.2432 138.059C85.5839 138.062 83.7165 137.459 83.7165 137.459Z" fill="#191919"/>
<path d="M88.1226 155.373C87.3337 155.173 86.1137 154.721 84.596 153.741C81.7995 151.932 82.264 148.516 82.264 148.516C83.4587 151.282 87.2443 152.487 87.2443 152.487L87.825 152.72C87.7996 152.72 87.7756 152.712 87.7502 152.704L88.0572 154.908L88.1226 155.373Z" fill="#5F195B"/>
<path d="M70.9901 159.837C74.6423 159.472 77.4227 163.321 80.9494 170.289C84.4761 177.258 88.211 187.911 88.211 187.911C88.211 187.911 104.879 186.102 110.273 181.948C110.273 181.948 111.449 177.728 112.28 176.723C113.11 175.718 114.7 174.981 115.738 174.444C116.775 173.908 117.467 173.372 117.467 173.372L113.386 183.892C113.386 183.892 110.619 186.371 109.099 187.778C107.577 189.185 91.2544 197.493 84.7537 195.885C78.253 194.276 70.1598 177.728 69.2615 173.707C68.3631 169.687 66.2875 160.306 70.9901 159.837Z" fill="#F1F1F1"/>
<path d="M70.99 159.837L71.0034 159.965C71.1582 159.949 71.3104 159.942 71.4612 159.942C72.2915 159.942 73.075 160.172 73.8439 160.623C74.9972 161.3 76.1145 162.479 77.2558 164.117C78.3971 165.754 79.565 167.849 80.8291 170.345C82.5898 173.822 84.4039 178.225 85.7774 181.757C86.4649 183.523 87.0415 185.071 87.446 186.178C87.6489 186.732 87.8077 187.175 87.9172 187.479C88.0266 187.784 88.084 187.95 88.084 187.95L88.1187 188.048L88.2255 188.037C88.2282 188.037 92.3982 187.584 97.2464 186.61C99.6705 186.124 102.264 185.507 104.593 184.751C106.923 183.994 108.986 183.099 110.357 182.045L110.392 182.02L110.404 181.978C110.404 181.978 110.423 181.912 110.456 181.796C110.573 181.386 110.88 180.348 111.248 179.303C111.43 178.78 111.629 178.258 111.826 177.812C112.022 177.367 112.219 176.998 112.385 176.798C112.784 176.314 113.378 175.885 114.001 175.512C114.626 175.14 115.28 174.822 115.801 174.553C116.849 174.011 117.545 173.471 117.551 173.468L117.468 173.367L117.342 173.322L113.262 183.842L113.387 183.887L113.297 183.792C113.297 183.792 110.529 186.271 109.006 187.68C108.928 187.752 108.797 187.853 108.622 187.972C107.963 188.423 106.682 189.151 105.033 189.987C102.556 191.24 99.2433 192.733 95.9089 193.913C92.5758 195.093 89.2186 195.957 86.6718 195.956C85.9763 195.956 85.3422 195.891 84.787 195.754C83.2078 195.366 81.4939 194.047 79.8173 192.215C77.2998 189.468 74.8571 185.578 72.9642 182.001C72.0178 180.213 71.2076 178.503 70.5922 177.054C69.9769 175.604 69.5577 174.413 69.3922 173.674C68.929 171.605 68.1561 168.117 68.1575 165.172C68.1575 163.788 68.3297 162.524 68.7742 161.596C68.9957 161.13 69.2841 160.75 69.6485 160.472C70.0142 160.194 70.4574 160.015 71.006 159.961L70.99 159.837L70.9767 159.709C70.384 159.767 69.8874 159.965 69.4816 160.274C68.8743 160.737 68.4778 161.442 68.2322 162.287C67.9866 163.133 67.8892 164.125 67.8892 165.179C67.8892 168.165 68.6674 171.663 69.1306 173.734C69.3602 174.759 70.0356 176.547 71.0247 178.695C72.5077 181.915 74.6929 185.929 77.1223 189.295C78.337 190.978 79.6118 192.499 80.8946 193.679C82.1773 194.858 83.4668 195.698 84.7202 196.009C85.3035 196.154 85.9589 196.218 86.6704 196.218C88.5245 196.218 90.7644 195.776 93.1097 195.094C96.627 194.073 100.378 192.512 103.383 191.087C104.886 190.375 106.201 189.694 107.207 189.132C107.71 188.851 108.136 188.599 108.471 188.386C108.806 188.172 109.048 188 109.191 187.87C109.95 187.168 111.022 186.195 111.904 185.4C112.345 185.002 112.739 184.648 113.022 184.394C113.163 184.267 113.277 184.165 113.355 184.094C113.434 184.023 113.477 183.985 113.477 183.985L113.499 183.964L117.762 172.977L117.383 173.27L117.376 173.275C117.3 173.334 116.638 173.831 115.675 174.329C115.159 174.596 114.499 174.916 113.861 175.296C113.223 175.678 112.606 176.119 112.175 176.64C112.062 176.777 111.95 176.959 111.836 177.175C111.438 177.931 111.018 179.111 110.694 180.107C110.371 181.103 110.145 181.912 110.145 181.914L110.274 181.947L110.192 181.846C108.865 182.868 106.823 183.759 104.509 184.509C101.039 185.636 96.9581 186.455 93.7478 186.992C92.1419 187.259 90.7537 187.457 89.7673 187.588C89.2734 187.652 88.8809 187.702 88.6113 187.734C88.4765 187.749 88.3723 187.762 88.3029 187.77C88.2322 187.778 88.1962 187.782 88.1962 187.782L88.2108 187.91L88.3376 187.868C88.3363 187.866 84.6027 177.213 81.0694 170.231C79.3808 166.895 77.8618 164.27 76.3267 162.469C75.5592 161.569 74.7863 160.873 73.9827 160.401C73.1791 159.929 72.3435 159.682 71.4612 159.683C71.301 159.683 71.1395 159.691 70.9767 159.708L70.99 159.837Z" fill="#A762A4"/>
<path d="M81.9531 198.163C81.9531 198.163 77.9766 211.63 87.9359 218.464C97.8951 225.298 123.624 210.023 132.753 199.57C132.753 199.57 146.724 218.197 158.62 223.824L164.292 218.732C164.292 218.732 148.246 195.952 139.808 190.725C131.37 185.498 104.535 195.683 104.535 195.683C104.535 195.683 88.973 199.301 81.9531 198.163Z" fill="#A762A4"/>
<path d="M183.241 220.809C182.687 220.674 182.274 221.211 181.65 221.344C181.028 221.478 173.282 224.025 170.03 224.694L164.291 218.732L158.619 223.824L164.466 228.362C165.07 229.44 166.353 231.508 168.026 232.937C170.378 234.947 172.245 234.076 173.282 233.339C174.319 232.602 176.187 230.592 178.054 229.184C179.922 227.777 182.55 225.164 183.241 223.422C183.933 221.68 183.794 220.943 183.241 220.809Z" fill="#F1F1F1"/>
<path d="M183.241 220.808L183.273 220.683C183.202 220.666 183.131 220.657 183.063 220.658C182.925 220.658 182.795 220.691 182.674 220.737C182.491 220.808 182.324 220.911 182.153 221.002C181.982 221.096 181.81 221.178 181.622 221.218C181.576 221.229 181.508 221.247 181.416 221.273C180.723 221.471 178.632 222.138 176.33 222.834C174.029 223.531 171.518 224.256 170.005 224.568L170.033 224.694L170.13 224.606L164.298 218.549L158.416 223.832L164.382 228.463L164.466 228.362L164.349 228.424C164.958 229.509 166.244 231.586 167.937 233.034C169.034 233.973 170.047 234.305 170.924 234.305C171.958 234.305 172.788 233.85 173.36 233.444C173.893 233.065 174.618 232.377 175.448 231.607C176.277 230.838 177.209 229.986 178.135 229.288C179.076 228.579 180.204 227.57 181.187 226.516C182.169 225.462 183.006 224.37 183.365 223.47C183.695 222.638 183.842 222.029 183.842 221.584C183.842 221.336 183.795 221.136 183.697 220.982C183.6 220.827 183.447 220.726 183.273 220.684L183.241 220.808L183.209 220.934C183.326 220.964 183.408 221.018 183.471 221.115C183.533 221.213 183.576 221.364 183.576 221.582C183.577 221.971 183.441 222.559 183.117 223.374C182.783 224.216 181.961 225.301 180.989 226.341C180.017 227.381 178.897 228.382 177.972 229.081C177.031 229.789 176.096 230.647 175.264 231.417C174.435 232.188 173.708 232.875 173.203 233.233C172.653 233.623 171.875 234.045 170.924 234.044C170.118 234.042 169.176 233.745 168.113 232.837C166.463 231.428 165.182 229.37 164.583 228.298L164.569 228.275L158.823 223.815L164.284 218.913L169.985 224.835L170.058 224.82C171.695 224.482 174.443 223.678 176.866 222.941C178.076 222.572 179.206 222.221 180.069 221.953C180.502 221.818 180.868 221.706 181.145 221.622C181.284 221.58 181.4 221.546 181.491 221.52C181.582 221.494 181.647 221.476 181.679 221.469C181.984 221.403 182.232 221.255 182.455 221.132C182.566 221.07 182.671 221.014 182.772 220.975C182.874 220.936 182.969 220.914 183.063 220.914C183.11 220.914 183.158 220.92 183.209 220.933L183.241 220.808Z" fill="#A762A4"/>
<path d="M127.853 222.049C127.853 222.049 126.675 226.357 125.968 227.495C125.261 228.633 122.512 231.56 122.984 233.267C123.455 234.974 125.426 235.655 128.569 236.387C131.711 237.119 132.173 238.871 134.136 239.603C136.1 240.335 138.358 240.647 138.908 240.239C139.458 239.833 140.291 240.172 141.295 239.1C142.346 237.976 140.119 237.091 138.943 236.118C138.182 235.49 136.181 233.591 133.903 231.64C131.624 229.689 133.998 224.493 133.998 224.493L127.853 222.049Z" fill="#F1F1F1"/>
<path d="M127.853 222.049L127.724 222.015C127.724 222.015 127.705 222.082 127.672 222.201C127.554 222.62 127.251 223.684 126.9 224.768C126.725 225.31 126.537 225.856 126.357 226.326C126.177 226.797 125.999 227.194 125.854 227.428C125.696 227.682 125.426 228.038 125.11 228.454C124.636 229.077 124.062 229.835 123.603 230.603C123.145 231.372 122.797 232.152 122.795 232.845C122.795 233.002 122.814 233.154 122.854 233.3C122.977 233.746 123.201 234.13 123.515 234.459C123.986 234.953 124.654 235.327 125.496 235.649C126.338 235.969 127.357 236.237 128.537 236.512C130.085 236.875 130.959 237.478 131.707 238.093C132.081 238.4 132.421 238.712 132.796 238.995C133.171 239.278 133.581 239.533 134.087 239.722C135.472 240.238 136.993 240.546 137.997 240.547C138.214 240.547 138.408 240.533 138.575 240.501C138.74 240.468 138.88 240.42 138.988 240.34C139.106 240.254 139.241 240.204 139.404 240.164C139.648 240.104 139.95 240.069 140.29 239.943C140.63 239.818 141.004 239.6 141.392 239.185C141.599 238.966 141.702 238.734 141.701 238.505C141.701 238.249 141.577 238.015 141.395 237.8C141.121 237.478 140.706 237.182 140.271 236.889C139.836 236.597 139.38 236.308 139.028 236.017C138.653 235.707 137.962 235.074 137.082 234.278C136.203 233.481 135.131 232.518 133.991 231.54C133.641 231.242 133.407 230.861 133.258 230.427C133.108 229.994 133.047 229.506 133.047 229.003C133.047 227.954 133.314 226.835 133.582 225.982C133.717 225.556 133.851 225.195 133.952 224.941C134.003 224.815 134.044 224.715 134.074 224.647C134.088 224.613 134.1 224.587 134.107 224.569C134.115 224.552 134.119 224.543 134.119 224.543L134.175 224.422L127.764 221.869L127.725 222.011L127.853 222.049L127.802 222.168L133.947 224.613L133.997 224.494L133.876 224.442C133.875 224.446 133.602 225.042 133.329 225.91C133.056 226.778 132.781 227.916 132.781 229.007C132.781 229.531 132.844 230.044 133.006 230.514C133.166 230.982 133.426 231.406 133.816 231.739C134.953 232.713 136.022 233.675 136.902 234.472C137.782 235.268 138.472 235.9 138.858 236.219C139.351 236.626 140.01 237.009 140.537 237.394C140.801 237.587 141.032 237.78 141.191 237.967C141.351 238.157 141.437 238.336 141.435 238.508C141.435 238.662 141.371 238.825 141.195 239.013C140.709 239.531 140.286 239.696 139.897 239.794C139.704 239.842 139.518 239.872 139.338 239.916C139.159 239.96 138.984 240.021 138.826 240.137C138.768 240.18 138.664 240.222 138.521 240.25C138.38 240.277 138.201 240.291 137.995 240.291C137.045 240.292 135.538 239.988 134.182 239.483C133.706 239.306 133.322 239.066 132.959 238.794C132.416 238.384 131.924 237.891 131.269 237.429C130.614 236.968 129.791 236.54 128.597 236.262C127.028 235.897 125.757 235.544 124.832 235.078C124.369 234.846 123.994 234.586 123.707 234.284C123.42 233.983 123.221 233.64 123.108 233.234C123.074 233.113 123.058 232.983 123.058 232.846C123.058 232.442 123.2 231.971 123.429 231.481C123.774 230.744 124.31 229.963 124.824 229.268C125.338 228.574 125.826 227.969 126.078 227.563C126.265 227.261 126.47 226.776 126.681 226.209C127.314 224.508 127.976 222.085 127.977 222.082L127.853 222.049L127.802 222.168L127.853 222.049Z" fill="#A762A4"/>
<path d="M138.111 161.041L131.58 179.332L130.269 182.966C130.178 183.208 129.97 183.393 129.713 183.456L113.039 187.678C112.699 187.766 112.384 187.63 112.209 187.396C112.051 187.204 111.992 186.939 112.085 186.672L112.972 184.228L121.097 161.144C121.206 160.839 121.487 160.63 121.82 160.622L136.004 160.067L137.324 160.019C137.887 159.996 138.294 160.526 138.111 161.041Z" fill="white"/>
<path d="M138.111 161.041L131.58 179.332L130.269 182.966C130.178 183.208 129.97 183.393 129.712 183.456L113.039 187.678C112.698 187.766 112.383 187.63 112.208 187.396C115.237 184.976 123.521 178.07 129.089 170.689C133.056 165.431 135.04 162.013 136.002 160.068L137.322 160.021C137.887 159.996 138.294 160.526 138.111 161.041Z" fill="#6C2569"/>
<path d="M134.733 171.642C134.725 171.629 134.713 171.619 134.705 171.606C134.901 171.413 135.159 171.082 135.056 170.738C134.897 170.204 134.083 169.867 132.935 169.895C131.787 169.925 131.186 170.3 131.427 170.53C131.667 170.76 132.306 171.048 133.018 170.953L133.179 171.142C132.959 171.16 132.725 171.193 132.477 171.253C131.362 171.517 130.857 172.007 131.141 172.183C131.427 172.358 132.114 172.51 132.788 172.27L132.947 172.391C132.776 172.411 132.599 172.44 132.413 172.484C131.298 172.748 130.793 173.238 131.077 173.414C131.362 173.589 132.05 173.741 132.724 173.502L133.096 173.786C132.461 173.981 131.756 174.271 131.88 174.495C132.062 174.822 133.099 174.897 133.099 174.897L132.659 176.229C132.659 176.229 134.034 175.6 134.499 174.923C134.769 174.532 134.688 174.121 134.471 173.857C134.626 173.64 134.861 173.222 134.668 172.874C134.626 172.801 134.567 172.736 134.499 172.677C134.648 172.48 134.941 172.018 134.733 171.642Z" fill="#F1F1F1"/>
<path d="M134.733 171.642L134.85 171.58C134.838 171.559 134.828 171.546 134.821 171.54L134.816 171.534L134.814 171.535L134.816 171.534L134.814 171.535L134.816 171.534L134.778 171.559L134.817 171.536L134.816 171.534L134.778 171.559L134.817 171.536L134.704 171.605L134.798 171.695C134.886 171.609 134.987 171.496 135.068 171.362C135.148 171.227 135.211 171.071 135.211 170.897C135.211 170.833 135.201 170.767 135.183 170.701C135.137 170.548 135.048 170.412 134.925 170.296C134.74 170.121 134.482 169.989 134.17 169.9C133.856 169.811 133.486 169.763 133.072 169.763C133.026 169.763 132.979 169.763 132.932 169.764C132.43 169.777 132.027 169.854 131.74 169.961C131.596 170.015 131.481 170.076 131.394 170.147C131.352 170.183 131.314 170.222 131.288 170.266C131.261 170.31 131.242 170.363 131.242 170.418C131.241 170.494 131.28 170.568 131.334 170.619C131.457 170.736 131.648 170.852 131.89 170.944C132.13 171.034 132.421 171.099 132.737 171.099C132.836 171.099 132.936 171.093 133.038 171.08L133.019 170.952L132.916 171.034L133.078 171.223L133.18 171.14L133.17 171.011C132.943 171.029 132.703 171.064 132.446 171.125C131.98 171.235 131.615 171.385 131.358 171.54C131.23 171.618 131.129 171.698 131.055 171.78C131.018 171.822 130.989 171.865 130.966 171.91C130.945 171.955 130.93 172.003 130.93 172.055C130.93 172.101 130.943 172.149 130.969 172.19C130.994 172.232 131.03 172.264 131.07 172.29C131.176 172.355 131.317 172.412 131.484 172.453C131.651 172.494 131.846 172.521 132.054 172.521C132.299 172.521 132.568 172.484 132.833 172.39L132.788 172.268L132.705 172.37L132.864 172.49L132.947 172.388L132.931 172.26C132.756 172.281 132.574 172.309 132.381 172.356C131.915 172.466 131.549 172.616 131.293 172.771C131.165 172.849 131.063 172.929 130.99 173.012C130.953 173.053 130.923 173.096 130.901 173.141C130.879 173.186 130.865 173.234 130.865 173.286C130.865 173.332 130.878 173.38 130.903 173.422C130.929 173.463 130.965 173.495 131.005 173.521C131.11 173.586 131.252 173.643 131.418 173.684C131.585 173.725 131.78 173.753 131.988 173.753C132.234 173.753 132.502 173.715 132.768 173.621L132.723 173.499L132.64 173.601L133.012 173.886L133.095 173.784L133.055 173.661C132.757 173.753 132.446 173.864 132.201 173.983C132.078 174.044 131.971 174.104 131.888 174.173C131.847 174.208 131.811 174.243 131.782 174.285C131.754 174.328 131.731 174.38 131.731 174.438C131.731 174.477 131.741 174.518 131.762 174.553C131.796 174.615 131.847 174.666 131.903 174.706C132.002 174.777 132.123 174.827 132.25 174.869C132.632 174.99 133.082 175.021 133.087 175.022L133.096 174.893L132.97 174.853L132.434 176.468L132.712 176.341C132.715 176.34 133.062 176.181 133.471 175.935C133.88 175.688 134.351 175.36 134.607 174.99C134.741 174.796 134.801 174.592 134.8 174.399C134.8 174.159 134.71 173.94 134.573 173.773L134.469 173.853L134.578 173.927C134.638 173.843 134.71 173.729 134.768 173.599C134.825 173.468 134.87 173.318 134.87 173.16C134.87 173.045 134.845 172.924 134.782 172.81C134.73 172.718 134.661 172.643 134.586 172.578L134.497 172.674L134.605 172.75C134.665 172.671 134.745 172.554 134.813 172.413C134.88 172.272 134.936 172.106 134.936 171.929C134.936 171.813 134.91 171.693 134.848 171.579L134.733 171.642L134.615 171.703C134.655 171.775 134.671 171.85 134.671 171.93C134.671 172.052 134.63 172.185 134.573 172.306C134.515 172.424 134.443 172.531 134.391 172.599L134.319 172.693L134.409 172.772C134.47 172.825 134.518 172.878 134.549 172.935C134.589 173.008 134.605 173.083 134.605 173.163C134.605 173.273 134.571 173.39 134.523 173.499C134.475 173.608 134.413 173.709 134.359 173.782L134.303 173.861L134.364 173.936C134.467 174.06 134.534 174.225 134.534 174.4C134.534 174.543 134.493 174.694 134.386 174.848C134.176 175.156 133.725 175.481 133.331 175.717C133.134 175.836 132.95 175.934 132.816 176.003C132.749 176.036 132.695 176.063 132.657 176.082C132.639 176.091 132.624 176.097 132.614 176.102L132.6 176.109L132.657 176.225L132.784 176.265L133.277 174.777L133.108 174.765L133.098 174.764C133.044 174.76 132.789 174.735 132.534 174.677C132.408 174.649 132.279 174.61 132.181 174.565C132.081 174.521 132.015 174.465 131.996 174.43L131.98 174.438H131.998L131.996 174.43L131.98 174.438H131.998H131.984L131.998 174.441V174.438H131.984L131.998 174.441L132 174.435C132.007 174.419 132.047 174.375 132.115 174.329C132.217 174.259 132.376 174.183 132.556 174.109C132.736 174.037 132.939 173.967 133.136 173.906L133.377 173.833L132.747 173.353L132.677 173.378C132.444 173.46 132.207 173.493 131.988 173.493C131.803 173.493 131.631 173.469 131.485 173.433C131.34 173.397 131.221 173.348 131.147 173.303C131.135 173.295 131.133 173.29 131.131 173.29V173.286C131.131 173.282 131.133 173.27 131.142 173.252C131.158 173.22 131.197 173.169 131.261 173.115C131.455 172.948 131.862 172.745 132.444 172.608C132.624 172.565 132.795 172.538 132.963 172.518L133.281 172.479L132.812 172.122L132.743 172.146C132.509 172.229 132.273 172.262 132.054 172.262C131.868 172.262 131.696 172.238 131.551 172.202C131.405 172.166 131.286 172.117 131.213 172.071C131.201 172.064 131.198 172.059 131.197 172.059V172.055C131.197 172.051 131.198 172.039 131.208 172.021C131.224 171.989 131.262 171.938 131.326 171.884C131.52 171.717 131.927 171.514 132.509 171.377C132.751 171.32 132.978 171.287 133.191 171.27L133.446 171.249L133.074 170.813L133 170.824C132.911 170.835 132.823 170.84 132.736 170.84C132.458 170.84 132.198 170.783 131.986 170.703C131.774 170.623 131.607 170.518 131.521 170.436C131.505 170.419 131.509 170.419 131.508 170.419C131.508 170.419 131.508 170.412 131.516 170.399C131.529 170.376 131.572 170.333 131.643 170.292C131.749 170.229 131.918 170.164 132.137 170.115C132.356 170.066 132.625 170.031 132.939 170.023C132.984 170.022 133.028 170.022 133.072 170.022C133.596 170.022 134.036 170.103 134.355 170.24C134.515 170.309 134.643 170.39 134.738 170.481C134.833 170.571 134.896 170.668 134.926 170.773C134.938 170.816 134.945 170.857 134.945 170.899C134.945 171.01 134.904 171.125 134.838 171.232C134.773 171.34 134.686 171.439 134.609 171.515L134.534 171.588L134.59 171.674C134.602 171.693 134.611 171.702 134.615 171.707L134.618 171.709L134.661 171.678L134.614 171.703L134.618 171.709L134.661 171.678L134.614 171.703L134.733 171.642Z" fill="#A762A4"/>
<path d="M129.871 173.301C129.405 174.795 128.144 175.748 127.053 175.428C125.963 175.109 125.458 173.64 125.924 172.145C126.39 170.652 127.651 169.699 128.742 170.018C129.833 170.337 130.337 171.808 129.871 173.301Z" fill="#6C2569"/>
<path d="M178.787 233.362C175.384 247.601 160.122 257.474 132.891 259.268C77.9072 262.886 47.6142 259.67 36.8246 234.342C34.3845 228.618 33.4381 221.221 33.5716 213.14C37.7216 214.749 45.4477 219.145 53.8386 230.925C66.2873 248.412 91.3931 257.257 121.687 253.437C151.166 249.724 169.06 245.624 178.787 233.362Z" fill="#A762A4"/>
</svg>
