<svg width="390" height="8" viewBox="0 0 390 8" fill="none" xmlns="http://www.w3.org/2000/svg">
    <g clip-path="url(#clip0_25_2042)">
    <line x1="204.707" y1="-1.29289" x2="193.707" y2="9.70711" stroke="#E6B1E3" stroke-width="2"/>
    <line x1="210.707" y1="-1.29289" x2="199.707" y2="9.70711" stroke="#E6B1E3" stroke-width="2"/>
    <line x1="216.707" y1="-1.29289" x2="205.707" y2="9.70711" stroke="#E6B1E3" stroke-width="2"/>
    <line x1="222.707" y1="-1.29289" x2="211.707" y2="9.70711" stroke="#E6B1E3" stroke-width="2"/>
    <line x1="228.707" y1="-1.29289" x2="217.707" y2="9.70711" stroke="#E6B1E3" stroke-width="2"/>
    <line x1="234.707" y1="-1.29289" x2="223.707" y2="9.70711" stroke="#E6B1E3" stroke-width="2"/>
    <line x1="240.707" y1="-1.29289" x2="229.707" y2="9.70711" stroke="#E6B1E3" stroke-width="2"/>
    <line x1="246.707" y1="-1.29289" x2="235.707" y2="9.70711" stroke="#E6B1E3" stroke-width="2"/>
    <line x1="252.707" y1="-1.29289" x2="241.707" y2="9.70711" stroke="#E6B1E3" stroke-width="2"/>
    <line x1="258.707" y1="-1.29289" x2="247.707" y2="9.70711" stroke="#E6B1E3" stroke-width="2"/>
    <line x1="264.707" y1="-1.29289" x2="253.707" y2="9.70711" stroke="#E6B1E3" stroke-width="2"/>
    <line x1="270.707" y1="-1.29289" x2="259.707" y2="9.70711" stroke="#E6B1E3" stroke-width="2"/>
    <line x1="276.707" y1="-1.29289" x2="265.707" y2="9.70711" stroke="#E6B1E3" stroke-width="2"/>
    <line x1="282.707" y1="-1.29289" x2="271.707" y2="9.70711" stroke="#E6B1E3" stroke-width="2"/>
    <line x1="288.707" y1="-1.29289" x2="277.707" y2="9.70711" stroke="#E6B1E3" stroke-width="2"/>
    <line x1="294.707" y1="-1.29289" x2="283.707" y2="9.70711" stroke="#E6B1E3" stroke-width="2"/>
    <line x1="300.707" y1="-1.29289" x2="289.707" y2="9.70711" stroke="#E6B1E3" stroke-width="2"/>
    <line x1="306.707" y1="-1.29289" x2="295.707" y2="9.70711" stroke="#E6B1E3" stroke-width="2"/>
    <line x1="312.707" y1="-1.29289" x2="301.707" y2="9.70711" stroke="#E6B1E3" stroke-width="2"/>
    <line x1="318.707" y1="-1.29289" x2="307.707" y2="9.70711" stroke="#E6B1E3" stroke-width="2"/>
    <line x1="324.707" y1="-1.29289" x2="313.707" y2="9.70711" stroke="#E6B1E3" stroke-width="2"/>
    <line x1="330.707" y1="-1.29289" x2="319.707" y2="9.70711" stroke="#E6B1E3" stroke-width="2"/>
    <line x1="336.707" y1="-1.29289" x2="325.707" y2="9.70711" stroke="#E6B1E3" stroke-width="2"/>
    <line x1="342.707" y1="-1.29289" x2="331.707" y2="9.70711" stroke="#E6B1E3" stroke-width="2"/>
    <line x1="348.707" y1="-1.29289" x2="337.707" y2="9.70711" stroke="#E6B1E3" stroke-width="2"/>
    <line x1="354.707" y1="-1.29289" x2="343.707" y2="9.70711" stroke="#E6B1E3" stroke-width="2"/>
    <line x1="360.707" y1="-1.29289" x2="349.707" y2="9.70711" stroke="#E6B1E3" stroke-width="2"/>
    <line x1="366.707" y1="-1.29289" x2="355.707" y2="9.70711" stroke="#E6B1E3" stroke-width="2"/>
    <line x1="372.707" y1="-1.29289" x2="361.707" y2="9.70711" stroke="#E6B1E3" stroke-width="2"/>
    <line x1="378.707" y1="-1.29289" x2="367.707" y2="9.70711" stroke="#E6B1E3" stroke-width="2"/>
    <line x1="384.707" y1="-1.29289" x2="373.707" y2="9.70711" stroke="#E6B1E3" stroke-width="2"/>
    <line x1="390.707" y1="-1.29289" x2="379.707" y2="9.70711" stroke="#E6B1E3" stroke-width="2"/>
    <line x1="396.707" y1="-1.29289" x2="385.707" y2="9.70711" stroke="#E6B1E3" stroke-width="2"/>
    <line x1="0.707107" y1="-1.29289" x2="-10.2929" y2="9.70711" stroke="#E6B1E3" stroke-width="2"/>
    <line x1="6.70711" y1="-1.29289" x2="-4.29289" y2="9.70711" stroke="#E6B1E3" stroke-width="2"/>
    <line x1="12.7071" y1="-1.29289" x2="1.70711" y2="9.70711" stroke="#E6B1E3" stroke-width="2"/>
    <line x1="18.7071" y1="-1.29289" x2="7.70711" y2="9.70711" stroke="#E6B1E3" stroke-width="2"/>
    <line x1="24.7071" y1="-1.29289" x2="13.7071" y2="9.70711" stroke="#E6B1E3" stroke-width="2"/>
    <line x1="30.7071" y1="-1.29289" x2="19.7071" y2="9.70711" stroke="#E6B1E3" stroke-width="2"/>
    <line x1="36.7071" y1="-1.29289" x2="25.7071" y2="9.70711" stroke="#E6B1E3" stroke-width="2"/>
    <line x1="42.7071" y1="-1.29289" x2="31.7071" y2="9.70711" stroke="#E6B1E3" stroke-width="2"/>
    <line x1="48.7071" y1="-1.29289" x2="37.7071" y2="9.70711" stroke="#E6B1E3" stroke-width="2"/>
    <line x1="54.7071" y1="-1.29289" x2="43.7071" y2="9.70711" stroke="#E6B1E3" stroke-width="2"/>
    <line x1="60.7071" y1="-1.29289" x2="49.7071" y2="9.70711" stroke="#E6B1E3" stroke-width="2"/>
    <line x1="66.7071" y1="-1.29289" x2="55.7071" y2="9.70711" stroke="#E6B1E3" stroke-width="2"/>
    <line x1="72.7071" y1="-1.29289" x2="61.7071" y2="9.70711" stroke="#E6B1E3" stroke-width="2"/>
    <line x1="78.7071" y1="-1.29289" x2="67.7071" y2="9.70711" stroke="#E6B1E3" stroke-width="2"/>
    <line x1="84.7071" y1="-1.29289" x2="73.7071" y2="9.70711" stroke="#E6B1E3" stroke-width="2"/>
    <line x1="90.7071" y1="-1.29289" x2="79.7071" y2="9.70711" stroke="#E6B1E3" stroke-width="2"/>
    <line x1="96.7071" y1="-1.29289" x2="85.7071" y2="9.70711" stroke="#E6B1E3" stroke-width="2"/>
    <line x1="102.707" y1="-1.29289" x2="91.7071" y2="9.70711" stroke="#E6B1E3" stroke-width="2"/>
    <line x1="108.707" y1="-1.29289" x2="97.7071" y2="9.70711" stroke="#E6B1E3" stroke-width="2"/>
    <line x1="114.707" y1="-1.29289" x2="103.707" y2="9.70711" stroke="#E6B1E3" stroke-width="2"/>
    <line x1="120.707" y1="-1.29289" x2="109.707" y2="9.70711" stroke="#E6B1E3" stroke-width="2"/>
    <line x1="126.707" y1="-1.29289" x2="115.707" y2="9.70711" stroke="#E6B1E3" stroke-width="2"/>
    <line x1="132.707" y1="-1.29289" x2="121.707" y2="9.70711" stroke="#E6B1E3" stroke-width="2"/>
    <line x1="138.707" y1="-1.29289" x2="127.707" y2="9.70711" stroke="#E6B1E3" stroke-width="2"/>
    <line x1="144.707" y1="-1.29289" x2="133.707" y2="9.70711" stroke="#E6B1E3" stroke-width="2"/>
    <line x1="150.707" y1="-1.29289" x2="139.707" y2="9.70711" stroke="#E6B1E3" stroke-width="2"/>
    <line x1="156.707" y1="-1.29289" x2="145.707" y2="9.70711" stroke="#E6B1E3" stroke-width="2"/>
    <line x1="162.707" y1="-1.29289" x2="151.707" y2="9.70711" stroke="#E6B1E3" stroke-width="2"/>
    <line x1="168.707" y1="-1.29289" x2="157.707" y2="9.70711" stroke="#E6B1E3" stroke-width="2"/>
    <line x1="174.707" y1="-1.29289" x2="163.707" y2="9.70711" stroke="#E6B1E3" stroke-width="2"/>
    <line x1="180.707" y1="-1.29289" x2="169.707" y2="9.70711" stroke="#E6B1E3" stroke-width="2"/>
    <line x1="186.707" y1="-1.29289" x2="175.707" y2="9.70711" stroke="#E6B1E3" stroke-width="2"/>
    <line x1="192.707" y1="-1.29289" x2="181.707" y2="9.70711" stroke="#E6B1E3" stroke-width="2"/>
    <line x1="198.707" y1="-1.29289" x2="187.707" y2="9.70711" stroke="#E6B1E3" stroke-width="2"/>
    </g>
    <defs>
    <clipPath id="clip0_25_2042">
    <rect width="390" height="8" fill="white"/>
    </clipPath>
    </defs>
    </svg>
    