<svg width="27" height="24" viewBox="0 0 27 24" fill="none" xmlns="http://www.w3.org/2000/svg">
    <path d="M21.6116 9.98471C21.2457 8.06146 20.4324 6.25184 19.2377 4.70283C20.587 3.08477 22.2068 1.71433 24.0247 0.652832C30.6468 15.8403 18.5082 22.8322 18.5082 22.8322H18.3005C21.2244 19.4741 22.3692 15.0528 21.6116 9.98471Z" fill="#FF93C7"/>
    <path d="M2.69373 14.9625C5.53583 15.0623 8.31428 15.8332 10.803 17.2125C10.4385 16.4856 10.1579 15.7194 9.96681 14.9288C8.84442 10.2544 10.3989 4.4325 12.0488 0C14.4115 0.82125 16.9481 2.93062 18.6934 5.3775C19.7481 6.77075 20.4665 8.38994 20.7922 10.1081C21.6565 15.8625 19.928 20.0306 17.122 22.8938L16.9986 23.0231C16.9986 23.0231 11.1622 24.0188 6.59965 21.8813C1.31881 19.395 0 15.2494 0 15.2494C0.880291 15.029 1.78689 14.9324 2.69373 14.9625V14.9625Z" fill="#419FB9"/>
    <path d="M18.6935 5.37768L18.5981 5.24268C15.8372 9.0444 14.3819 13.6416 14.4508 18.3433C14.4489 19.9874 14.6163 21.6274 14.9503 23.2371C15.6361 23.2076 16.3198 23.1419 16.9987 23.0402C17.0435 23.0008 17.0828 22.9502 17.1277 22.9052C19.9337 20.0308 21.6566 15.8627 20.7923 10.1083C20.4666 8.39012 19.7482 6.77092 18.6935 5.37768V5.37768Z" fill="#265E6C"/>
</svg>